<svg xmlns="http://www.w3.org/2000/svg" width="314" height="100" x="0px" y="0px" viewBox="0 0 62 62">
    <g transform="translate(-75, 0)">
        <g id="Layer_2">
            <rect width="62" height="62" x="0" y="0" class="background-color"/>
        </g>
        <g id="Layer_1">
            <clipPath id="clipper">
                <path d="
                       M23.9,9.4
                       v0.1
                       c-0.1,0-0.2,0.1-0.2,0.2
                       v1.6
                       c0,0.1,0.1,0.2,0.2,0.2
                       h1.6
                       c0.3,0,0.5,0.2,0.5,0.5
                       v11.4
                       c0,0.2-0.1,0.4-0.4,0.5
                       c-7.7,2.4-12.8,9.4-12.8,17.4
                       c0,10.1,8.2,18.2,18.2,18.2
                       c10.1,0,18.2-8.2,18.2-18.2
                       c0-8-5.2-15.1-12.8-17.4
                       c-0.2-0.1-0.4-0.3-0.4-0.5
                       V11.9
                       c0-0.3,0.2-0.5,0.5-0.5
                       h1.6
                       c0.1,0,0.2-0.1,0.2-0.2
                       v-100
                       v-1.7
                       " class="inner-border"/>
            </clipPath>
            <g clip-path="url(#clipper)">
                <g class="sources" transform="translate(13, 60)">
                    <g class="left-color left-source" transform="translate(5,0)">
                        <g class="static-circles">
<!--<circle r="1.3119307379526626" class="bubble" transform="translate(10.200050354003906, -55.145816802978516)"/>-->
<!--<circle r="1.3510193072144876" class="bubble" transform="translate(11.677628517150879, -45.047096252441406)"/>-->
<!--<circle r="1.2426440721885799" class="bubble" transform="translate(11.273530006408691, -56.60681915283203)"/>-->
<!--<circle r="0.8265962245661225" class="bubble" transform="translate(9.542943954467773, -47.14807891845703)"/>-->
<!--<circle r="1.2599164117076032" class="bubble" transform="translate(16.66531753540039, -57.4888916015625)"/>-->
<!--<circle r="1.483266392217894" class="bubble" transform="translate(15.475475311279297, -54.92168045043945)"/>-->
<!--<circle r="1.932866214033278" class="bubble" transform="translate(10.208783149719238, -36.17086410522461)"/>-->
<!--<circle r="1.240184847283985" class="bubble" transform="translate(4.349316120147705, -30.17429542541504)"/>-->
<!--<circle r="0.9364119232861539" class="bubble" transform="translate(15.519979476928711, -49.896087646484375)"/>-->
<!--<circle r="0.9133292260986798" class="bubble" transform="translate(3.5889289379119873, -27.953575134277344)"/>-->
<!--<circle r="1.2423521553815826" class="bubble" transform="translate(10.669809341430664, -34.27345657348633)"/>-->
<!--<circle r="1.396056848361058" class="bubble" transform="translate(4.383793830871582, -29.037553787231445)"/>-->
<!--<circle r="1.7567665334244857" class="bubble" transform="translate(7.483305931091309, -26.271968841552734)"/>-->
<!--<circle r="0.8300664627673531" class="bubble" transform="translate(6.518758773803711, -24.330556869506836)"/>-->
<!--<circle r="1.200828309047571" class="bubble" transform="translate(0.2557326555252075, -23.38819694519043)"/>-->
                            <circle r="1.4807106066882694" class="bubble" transform="translate(2.0903782844543457, -15.792875289916992)"/>
                            <circle r="1.394051248641041" class="bubble" transform="translate(3.235506772994995, -21.631092071533203)"/>
                            <circle r="0.8262095665183624" class="bubble" transform="translate(1.9794827699661255, -22.2469482421875)"/>
                            <circle r="1.2947572244662011" class="bubble" transform="translate(2.793957471847534, -19.74198341369629)"/>
                            <circle r="1.3094797748832612" class="bubble" transform="translate(2.5972862243652344, -16.32811164855957)"/>
                            <circle r="0.856604306932365" class="bubble" transform="translate(-2.307663917541504, -14.040122032165527)"/>
                            <circle r="1.0350711070213354" class="bubble" transform="translate(2.3252580165863037, -8.77181339263916)"/>
                            <circle r="1.2681746125484434" class="bubble" transform="translate(3.2069084644317627, -7.54560661315918)"/>
                            <circle r="1.06796220907576" class="bubble" transform="translate(0.5403173565864563, -9.244547843933105)"/>
                            <circle r="1.2673372373636043" class="bubble" transform="translate(3.1819660663604736, -10.539227485656738)"/>
                            <circle r="1.161650782310021" class="bubble" transform="translate(-2.0854241847991943, -5.439662933349609)"/>
                            <circle r="1.456275337955" class="bubble" transform="translate(3.4656291007995605, -5.825681686401367)"/>
                            <circle r="1.4794478847736423" class="bubble" transform="translate(-2.997445821762085, -5.46476936340332)"/>
                            <circle r="1.0375698211857103" class="bubble" transform="translate(1.501856803894043, -3.1398086547851562)"/>
                            <circle r="0.820153807770956" class="bubble" transform="translate(2.19533109664917, -3.023221969604492)"/>
                            <circle r="0.9115367986171012" class="bubble" transform="translate(-1.1189210414886475, -2.0031509399414062)"/>
                            <circle r="0.7582365797564075" class="bubble" transform="translate(3.256371021270752, -1.698690414428711)"/>
                            <circle r="1.376579160193363" class="bubble" transform="translate(1.4034854173660278, -1.511831283569336)"/>
                            <circle r="1.6748259465558535" class="bubble" transform="translate(2.0774290561676025, -1.7198333740234375)"/>
                            <circle r="1.9906934292905538" class="bubble" transform="translate(1.8540635108947754, -1.212411880493164)"/>
                            <circle r="0.8805548245651642" class="bubble" transform="translate(1.9825901985168457, -0.8805561065673828)"/>
                            <circle r="1.9676185560710469" class="bubble" transform="translate(-2.64536190032959, -0.6112804412841797)"/>
                            <circle r="1.1368865573616644" class="bubble" transform="translate(3.483698844909668, -0.6202869415283203)"/>
                            <circle r="0.904906811891725" class="bubble" transform="translate(2.770073890686035, -0.3719043731689453)"/>
                            <circle r="1.507132989106307" class="bubble" transform="translate(-2.213766574859619, -0.1756420135498047)"/>
                            <circle r="1.9766106212626564" class="bubble" transform="translate(-1.2820708751678467, -0.1449413299560547)"/>
                            <circle r="0.8861616958862579" class="bubble" transform="translate(2.968319892883301, -0.07447624206542969)"/>
                            <circle r="1.7831451298735141" class="bubble" transform="translate(2.5721192359924316, -0.023448944091796875)"/>
                            <circle r="1.8598232919232962" class="bubble" transform="translate(2.5601401329040527, -0.00910186767578125)"/>
                            <circle r="1.7788655228382937" class="bubble" transform="translate(-1.271723985671997, -0.0026187896728515625)"/>
                            <circle r="1.2695626114949459" class="bubble" transform="translate(3.06197190284729, -0.0001049041748046875)"/>
                            <circle r="1.3815140700183615" class="bubble" transform="translate(11.789881706237793, -47.460506439208984)"/>
                            <circle r="0.5884782591747837" class="bubble" transform="translate(10.912317276000977, -57.40223693847656)"/>
                            <circle r="1.3485849026443146" class="bubble" transform="translate(7.68479585647583, -31.215179443359375)"/>
                            <circle r="0.407691703208255" class="bubble" transform="translate(10.464701652526855, -42.97895431518555)"/>
                            <circle r="0.6841951074507062" class="bubble" transform="translate(-1.9925111532211304, -21.454622268676758)"/>
                            <circle r="0.9386264664573367" class="bubble" transform="translate(6.589183807373047, -27.375873565673828)"/>
                            <circle r="1.4992493504130366" class="bubble" transform="translate(1.6687251329421997, -18.13964080810547)"/>
                        </g>
                    </g>
                    <g class=" mid-color mid-source" transform="translate(18,0)">
                        <g class="static-circles">
<!--<circle r="1.928815272348337" class="bubble" transform="translate(1.9772284030914307, -64.53947448730469)"/>-->
<!--<circle r="1.9545764266162546" class="bubble" transform="translate(-1.9445387125015259, -55.92954635620117)"/>-->
<!--<circle r="1.0216772414087545" class="bubble" transform="translate(3.544593572616577, -42.61579513549805)"/>-->
<!--<circle r="1.921864472207182" class="bubble" transform="translate(-0.1319173127412796, -62.25831604003906)"/>-->
<!--<circle r="1.166945518624027" class="bubble" transform="translate(-3.369893789291382, -59.90788269042969)"/>-->
<!--<circle r="0.8380026409493662" class="bubble" transform="translate(1.8641126155853271, -58.41904830932617)"/>-->
<!--<circle r="1.4279909130633817" class="bubble" transform="translate(-3.454010248184204, -53.592220306396484)"/>-->
<!--<circle r="1.2240659186379248" class="bubble" transform="translate(3.489128351211548, -31.877548217773438)"/>-->
<!--<circle r="1.4257922163202068" class="bubble" transform="translate(-3.0455164909362793, -39.290077209472656)"/>-->
<!--<circle r="1.781279589202918" class="bubble" transform="translate(-1.3605365753173828, -40.11567306518555)"/>-->
                            <circle r="1.2325890760163998" class="bubble" transform="translate(3.1106834411621094, -34.469139099121094)"/>
                            <circle r="1.6634807495107973" class="bubble" transform="translate(3.062991142272949, -24.816932678222656)"/>
                            <circle r="0.9301695633537664" class="bubble" transform="translate(-1.3443536758422852, -28.773950576782227)"/>
                            <circle r="0.8348714520453908" class="bubble" transform="translate(-3.953308582305908, -20.901819229125977)"/>
                            <circle r="1.4202594005259852" class="bubble" transform="translate(-3.511716604232788, -31.122262954711914)"/>
                            <circle r="1.9684387100093437" class="bubble" transform="translate(2.411649227142334, -18.354694366455078)"/>
                            <circle r="1.4844093323167482" class="bubble" transform="translate(-2.1570286750793457, -14.665766716003418)"/>
                            <circle r="1.3254430427983661" class="bubble" transform="translate(2.7587192058563232, -20.256698608398438)"/>
                            <circle r="1.2702913266718232" class="bubble" transform="translate(-1.7560385465621948, -15.248703956604004)"/>
                            <circle r="1.835380988311735" class="bubble" transform="translate(-1.1654019355773926, -14.596651077270508)"/>
                            <circle r="1.2890700140816036" class="bubble" transform="translate(3.0835375785827637, -14.544801712036133)"/>
                            <circle r="1.8208871164177138" class="bubble" transform="translate(2.2928500175476074, -10.158315658569336)"/>
                            <circle r="1.4062855291524183" class="bubble" transform="translate(-2.2451822757720947, -7.014182090759277)"/>
                            <circle r="1.4086675603206502" class="bubble" transform="translate(-2.8177595138549805, -6.46849250793457)"/>
                            <circle r="0.9985050486333742" class="bubble" transform="translate(3.4862775802612305, -6.887795448303223)"/>
                            <circle r="1.3740954887355377" class="bubble" transform="translate(1.158944010734558, -6.449901580810547)"/>
                            <circle r="1.0999612650564956" class="bubble" transform="translate(-3.7700400352478027, -6.64492130279541)"/>
                            <circle r="0.8852818315258536" class="bubble" transform="translate(-3.7003564834594727, -4.927176475524902)"/>
                            <circle r="1.2473038695445244" class="bubble" transform="translate(-2.8297245502471924, -2.7375221252441406)"/>
                            <circle r="1.8455421503978915" class="bubble" transform="translate(-2.1296911239624023, -4.420661926269531)"/>
                            <circle r="1.448755084166258" class="bubble" transform="translate(1.4255818128585815, -3.4457149505615234)"/>
                            <circle r="1.755898745737067" class="bubble" transform="translate(3.053121566772461, -1.5710086822509766)"/>
                            <circle r="0.7542864124119196" class="bubble" transform="translate(-3.2562320232391357, -1.746206283569336)"/>
                            <circle r="1.8764006042190722" class="bubble" transform="translate(-0.5845080018043518, -1.4986381530761719)"/>
                            <circle r="0.8430693681603469" class="bubble" transform="translate(0.8459798693656921, -0.9501590728759766)"/>
                            <circle r="1.7060194614385022" class="bubble" transform="translate(2.1863582134246826, -0.7856864929199219)"/>
                            <circle r="1.25198597922415" class="bubble" transform="translate(-2.914367198944092, -0.7125587463378906)"/>
                            <circle r="1.2611204470052773" class="bubble" transform="translate(-2.039271831512451, -0.58648681640625)"/>
                            <circle r="1.8927181105703212" class="bubble" transform="translate(-1.821438193321228, -0.23341751098632812)"/>
                            <circle r="0.8110867406920148" class="bubble" transform="translate(1.2142828702926636, -0.25087928771972656)"/>
                            <circle r="1.110934945824587" class="bubble" transform="translate(2.6933414936065674, -0.16568374633789062)"/>
                            <circle r="0.8610861141334313" class="bubble" transform="translate(4.018347263336182, -0.09483718872070312)"/>
                            <circle r="1.3591615138422375" class="bubble" transform="translate(2.43436861038208, -0.0345458984375)"/>
                            <circle r="1.2963636526262594" class="bubble" transform="translate(-1.8690229654312134, -0.008245468139648438)"/>
                            <circle r="1.5110038689926026" class="bubble" transform="translate(-2.2195358276367188, -0.002674102783203125)"/>
                            <circle r="1.4933284816448946" class="bubble" transform="translate(-3.364377737045288, -0.000125885009765625)"/>
                            <circle r="0.5656760732000365" class="bubble" transform="translate(-2.134129285812378, -62.65113830566406)"/>
                            <circle r="1.642826606985076" class="bubble" transform="translate(1.843126893043518, -41.39695739746094)"/>
                            <circle r="1.5386398080998287" class="bubble" transform="translate(-0.3999519944190979, -34.979122161865234)"/>
                            <circle r="1.597687698645927" class="bubble" transform="translate(-0.8413342237472534, -38.02853012084961)"/>
                            <circle r="0.9965090015313665" class="bubble" transform="translate(0.006539651192724705, -22.46896743774414)"/>
                            <circle r="1.255084908432675" class="bubble" transform="translate(2.129957675933838, -21.364669799804688)"/>
                            <circle r="0.8122757920334593" class="bubble" transform="translate(1.9884306192398071, -17.014944076538086)"/>
                        </g>
                    </g>
                    <g class=" right-color right-source" transform="translate(31,0)">
                        <g class="static-circles">
<!--<circle r="1.4885701925624344" class="bubble" transform="translate(-11.221696853637695, -49.59113693237305)"/>-->
<!--<circle r="1.0274078033016012" class="bubble" transform="translate(-9.46420669555664, -47.64225769042969)"/>-->
<!--<circle r="1.3829781522687161" class="bubble" transform="translate(-11.303131103515625, -60.74590301513672)"/>-->
<!--<circle r="1.6351881325231017" class="bubble" transform="translate(-10.117772102355957, -51.504398345947266)"/>-->
<!--<circle r="1.277306739364216" class="bubble" transform="translate(-9.3395357131958, -52.314327239990234)"/>-->
<!--<circle r="1.2026017106410243" class="bubble" transform="translate(-9.136031150817871, -39.720218658447266)"/>-->
<!--<circle r="1.9699036110234882" class="bubble" transform="translate(-13.052253723144531, -34.957847595214844)"/>-->
<!--<circle r="1.8302891672579031" class="bubble" transform="translate(-14.377937316894531, -38.26108169555664)"/>-->
<!--<circle r="1.5175490695400833" class="bubble" transform="translate(-14.582754135131836, -38.4269905090332)"/>-->
<!--<circle r="1.0300764934853262" class="bubble" transform="translate(-4.8498616218566895, -24.954952239990234)"/>-->
<!--<circle r="1.2912727441893173" class="bubble" transform="translate(-0.9548895359039307, -24.06957244873047)"/>-->
                            <circle r="1.2876241398482386" class="bubble" transform="translate(-0.22658538818359375, -24.560853958129883)"/>
                            <circle r="0.9979531026755244" class="bubble" transform="translate(-10.3922700881958, -30.922870635986328)"/>
                            <circle r="1.3364512436971994" class="bubble" transform="translate(2.8419642448425293, -20.12069320678711)"/>
                            <circle r="0.9563269536637837" class="bubble" transform="translate(-5.007101535797119, -28.106063842773438)"/>
                            <circle r="1.972924062547202" class="bubble" transform="translate(2.4569592475891113, -14.75707721710205)"/>
                            <circle r="1.7095875744651878" class="bubble" transform="translate(-2.087815046310425, -17.01634979248047)"/>
                            <circle r="1.865371076750597" class="bubble" transform="translate(-1.914704442024231, -21.721721649169922)"/>
                            <circle r="1.8111744653593977" class="bubble" transform="translate(-2.4304754734039307, -10.883199691772461)"/>
                            <circle r="0.7557448378230096" class="bubble" transform="translate(-3.490734577178955, -11.134644508361816)"/>
                            <circle r="1.9576344732838387" class="bubble" transform="translate(-1.8609002828598022, -13.138007164001465)"/>
                            <circle r="1.7286051643730813" class="bubble" transform="translate(1.031916856765747, -9.729732513427734)"/>
                            <circle r="0.9744744140438024" class="bubble" transform="translate(0.5379509329795837, -14.057402610778809)"/>
                            <circle r="1.7613145809124435" class="bubble" transform="translate(-3.1379148960113525, -6.44711971282959)"/>
                            <circle r="1.8559118556445084" class="bubble" transform="translate(-1.75240957736969, -5.913244247436523)"/>
                            <circle r="1.3160272590589126" class="bubble" transform="translate(0.8268225193023682, -6.061966896057129)"/>
                            <circle r="1.171106793774157" class="bubble" transform="translate(3.0449390411376953, -8.116071701049805)"/>
                            <circle r="1.5881796388986968" class="bubble" transform="translate(2.923470973968506, -5.2526092529296875)"/>
                            <circle r="0.9745142411550536" class="bubble" transform="translate(-3.1716582775115967, -3.0159339904785156)"/>
                            <circle r="1.9932328847096152" class="bubble" transform="translate(-1.4616916179656982, -3.557971954345703)"/>
                            <circle r="1.9925538074429574" class="bubble" transform="translate(0.7278845906257629, -2.202861785888672)"/>
                            <circle r="1.958912432018896" class="bubble" transform="translate(2.2160708904266357, -2.021923065185547)"/>
                            <circle r="0.8975277790145341" class="bubble" transform="translate(-1.8660485744476318, -1.3329696655273438)"/>
                            <circle r="0.904972718172397" class="bubble" transform="translate(-2.088165044784546, -1.0284061431884766)"/>
                            <circle r="1.6848225072550351" class="bubble" transform="translate(-2.3867082595825195, -0.8497257232666016)"/>
                            <circle r="1.470419549866347" class="bubble" transform="translate(-3.4653773307800293, -1.2119293212890625)"/>
                            <circle r="1.8922793476549757" class="bubble" transform="translate(-1.3110591173171997, -0.6668872833251953)"/>
                            <circle r="1.7244208725642438" class="bubble" transform="translate(-2.8261003494262695, -0.6176643371582031)"/>
                            <circle r="0.8409720633693473" class="bubble" transform="translate(-2.6728954315185547, -0.3526802062988281)"/>
                            <circle r="0.9903674076499094" class="bubble" transform="translate(3.865776538848877, -0.22488021850585938)"/>
                            <circle r="1.8703550647426577" class="bubble" transform="translate(2.9451406002044678, -0.10717391967773438)"/>
                            <circle r="1.3918659669768179" class="bubble" transform="translate(-3.383662462234497, -0.07410621643066406)"/>
                            <circle r="1.705853973862095" class="bubble" transform="translate(-2.0155203342437744, -0.0350341796875)"/>
                            <circle r="1.3518806807156618" class="bubble" transform="translate(1.003465175628662, -0.013551712036132812)"/>
                            <circle r="1.592313844446948" class="bubble" transform="translate(2.5977721214294434, -0.0023040771484375)"/>
                            <circle r="1.0319131746294419" class="bubble" transform="translate(-1.7898173332214355, -0.0001220703125)"/>
                            <circle r="1.646108916302799" class="bubble" transform="translate(-11.289284706115723, -64.67266082763672)"/>
                            <circle r="0.597612608729059" class="bubble" transform="translate(-10.319361686706543, -57.47084426879883)"/>
                            <circle r="1.7161260000464371" class="bubble" transform="translate(-9.220061302185059, -47.14177703857422)"/>
                            <circle r="0.6202119232424383" class="bubble" transform="translate(-15.352131843566895, -43.207523345947266)"/>
                            <circle r="0.8283256604112474" class="bubble" transform="translate(2.1580100059509277, -22.953216552734375)"/>
                            <circle r="0.9590098511381685" class="bubble" transform="translate(0.18581454455852509, -27.114299774169922)"/>
                            <circle r="0.2636468618255146" class="bubble" transform="translate(-1.7285147905349731, -11.078755378723145)"/>
                        </g>
                    </g>
                </g>
            </g>
            <g clip-path="url(#clipper)">
                <g class="flask2" transform="translate(13, 40)">
                    <g class="left-color">
                        <g transform="translate(0,7.5)">
                            <circle cx="1" cy="1" r="1"/>
                            <circle cx="2" cy="-1.5" r="3"/>
                            <circle cx="3" cy="1" r="1"/>
                            <circle cx="4" cy="1" r="0.5"/>
                            <circle cx="5" cy="1" r="1"/>
                            <circle cx="6" cy="-1.4" r="2.7"/>
                            <circle cx="7" cy="-3.1" r="1.5"/>
                            <circle cx="8" cy="-1" r="0.5"/>
                            <circle cx="9.2" cy="-1.0" r="2"/>
                        </g>
                        <rect width="10" height="100" x="0" y="0" transform="translate(1,8)"/>
                    </g>
                    <g class="mid-color">
                        <g transform="translate(13,12)">
                            <circle cx="1" cy="1" r="1.5"/>
                            <circle cx="2" cy="-1" r="1.3"/>
                            <circle cx="3" cy="-0.5" r="1"/>
                            <circle cx="4" cy="-3" r="1.5"/>
                            <circle cx="5" cy="1" r="1"/>
                            <circle cx="6" cy="-1.4" r="2.7"/>
                            <circle cx="7" cy="-3.1" r="1.5"/>
                            <circle cx="8" cy="-1" r="0.5"/>
                            <circle cx="9.2" cy="-1" r="2"/>
                        </g>
                        <rect width="10" height="100" x="13" y="0" transform="translate(0,12)"/>
                    </g>
                    <g class="right-color">
                        <g transform="translate(26,4)">
                            <circle cx="1" cy="1" r="2.5"/>
                            <circle cx="2" cy="-0.5" r="1.3"/>
                            <circle cx="3" cy="-0.5" r="1"/>
                            <circle cx="4" cy="-2.5" r="1.5"/>
                            <circle cx="5" cy="-1.5" r="1"/>
                            <circle cx="6" cy="-1.4" r="2.7"/>
                            <circle cx="7" cy="-2.2" r="1.5"/>
                            <circle cx="8" cy="-1" r="0.5"/>
                            <circle cx="9.2" cy="-1" r="2"/>
                        </g>
                        <rect width="10" height="100" x="26" y="0" transform="translate(-1,4)"/>
                    </g>
                </g>
            </g>
            <path d="
                       
                       M25.6,23.85
                       c-7.7,2.4-12.8,9.4-12.8,17.4
                       c0,10.1,8.2,18.2,18.2,18.2
                       c10.1,0,18.2-8.2,18.2-18.2
                       c0-8-5.2-15.1-12.8-17.4
                    
                       " class="inner-border background"/>
            <g class="flask">
                <path fill="#2C3E50" d="M31,60.5c-10.6,0-19.2-8.6-19.2-19.2C11.8,32.9,17,25.6,25,23V12.4h-1.1c-0.7,0-1.2-0.5-1.2-1.2V9.6
				c0-0.7,0.5-1.2,1.2-1.2h14.2c0.7,0,1.2,0.5,1.2,1.2v1.6c0,0.7-0.5,1.2-1.2,1.2H37V23c7.9,2.6,13.2,9.9,13.2,18.3
				C50.2,51.9,41.6,60.5,31,60.5z M23.9,9.5c-0.1,0-0.2,0.1-0.2,0.2v1.6c0,0.1,0.1,0.2,0.2,0.2h1.6c0.3,0,0.5,0.2,0.5,0.5v11.4
				c0,0.2-0.1,0.4-0.4,0.5c-7.7,2.4-12.8,9.4-12.8,17.4c0,10.1,8.2,18.2,18.2,18.2c10.1,0,18.2-8.2,18.2-18.2
				c0-8-5.2-15.1-12.8-17.4c-0.2-0.1-0.4-0.3-0.4-0.5V11.9c0-0.3,0.2-0.5,0.5-0.5h1.6c0.1,0,0.2-0.1,0.2-0.2V9.6
				c0-0.1-0.1-0.2-0.2-0.2H23.9z"/>
            </g>
        </g>
        <g transform="translate(65, 10)">
            <path fill="#C03A2B" d="M0,7.4h3.1l3.1,8.1h0l3.1-8.1h3L7.8,19H4.7L0,7.4z"/>
            <path fill="#C03A2B" d="M14.1,14.8h2.9V19h-2.9V14.8z"/>
            <path fill="#C03A2B" d="M26.4,10.6c-0.6-0.8-1.3-1.2-2.3-1.2c-0.4,0-0.8,0.1-1.1,0.3c-0.4,0.2-0.6,0.5-0.6,0.9
      	c0,0.4,0.2,0.6,0.5,0.8c0.3,0.2,0.7,0.3,1.2,0.4c0.5,0.1,1,0.2,1.5,0.3c0.5,0.1,1,0.3,1.5,0.6c0.5,0.2,0.8,0.6,1.2,1
      	c0.3,0.4,0.5,1,0.5,1.8c0,0.7-0.1,1.3-0.4,1.7c-0.3,0.5-0.7,0.9-1.2,1.1c-0.5,0.3-1,0.5-1.6,0.6c-0.6,0.1-1.2,0.2-1.8,0.2
      	c-0.9,0-1.7-0.1-2.5-0.4c-0.8-0.3-1.4-0.7-2-1.4l1.9-1.8c0.4,0.4,0.8,0.8,1.2,1s0.9,0.4,1.5,0.4c0.2,0,0.4,0,0.6-0.1
      	c0.2,0,0.4-0.1,0.6-0.2c0.2-0.1,0.3-0.3,0.5-0.4c0.1-0.2,0.2-0.4,0.2-0.6c0-0.4-0.2-0.7-0.5-0.9s-0.7-0.3-1.2-0.5
      	c-0.5-0.1-1-0.2-1.5-0.3s-1-0.3-1.5-0.5c-0.5-0.2-0.8-0.6-1.2-1c-0.3-0.4-0.5-1-0.5-1.7c0-0.6,0.1-1.2,0.4-1.7
      	c0.3-0.5,0.6-0.9,1-1.2c0.4-0.3,0.9-0.5,1.5-0.7c0.6-0.1,1.1-0.2,1.7-0.2c0.8,0,1.5,0.1,2.3,0.4c0.8,0.3,1.4,0.7,1.8,1.4L26.4,10.6z
      	"/>
            <path fill="#C03A2B" d="M41.4,19h-2.7v-1.8h0c-0.3,0.6-0.7,1.1-1.2,1.5c-0.6,0.4-1.3,0.6-2.3,0.6c-0.8,0-1.4-0.1-2-0.4s-1-0.6-1.3-1
      	s-0.6-0.9-0.7-1.5c-0.1-0.5-0.2-1.1-0.2-1.7V7.4h2.9v5.8c0,0.3,0,0.7,0,1.1c0,0.4,0.1,0.8,0.3,1.1c0.1,0.3,0.3,0.6,0.6,0.9
      	c0.3,0.2,0.7,0.3,1.2,0.3c0.5,0,0.9-0.1,1.2-0.2c0.3-0.2,0.6-0.4,0.8-0.6c0.2-0.3,0.4-0.6,0.5-0.9s0.1-0.7,0.1-1.1V7.4h2.9V19z"/>
            <path fill="#C03A2B" d="M51.9,17.4L51.9,17.4c-0.5,0.7-1,1.1-1.7,1.4c-0.6,0.3-1.3,0.4-2.1,0.4c-0.5,0-1-0.1-1.5-0.2
      	c-0.5-0.1-1-0.4-1.3-0.6c-0.4-0.3-0.7-0.6-0.9-1.1c-0.2-0.4-0.4-0.9-0.4-1.5c0-0.6,0.1-1.2,0.3-1.6c0.2-0.4,0.5-0.8,0.9-1.1
      	c0.4-0.3,0.8-0.5,1.3-0.7c0.5-0.2,1-0.3,1.5-0.4c0.5-0.1,1.1-0.1,1.6-0.2c0.5,0,1.1,0,1.5,0h0.7v-0.3c0-0.7-0.2-1.3-0.7-1.6
      	S50,9.3,49.2,9.3c-0.6,0-1.2,0.1-1.7,0.3c-0.5,0.2-1,0.5-1.4,0.9L44.7,9c0.6-0.7,1.4-1.1,2.2-1.4s1.7-0.4,2.7-0.4
      	c0.8,0,1.5,0.1,2.1,0.3c0.6,0.2,1,0.4,1.4,0.7c0.4,0.3,0.7,0.6,0.9,1c0.2,0.4,0.3,0.8,0.4,1.1c0.1,0.4,0.1,0.8,0.2,1.1
      	c0,0.4,0,0.7,0,0.9V19h-2.6V17.4z M51.7,13.8h-0.6c-0.4,0-0.8,0-1.3,0c-0.5,0-1,0.1-1.4,0.2c-0.4,0.1-0.8,0.3-1.1,0.5
      	c-0.3,0.2-0.5,0.6-0.5,1c0,0.3,0.1,0.5,0.2,0.7c0.1,0.2,0.3,0.3,0.5,0.5c0.2,0.1,0.4,0.2,0.6,0.3c0.2,0.1,0.5,0.1,0.7,0.1
      	c1,0,1.7-0.2,2.2-0.7c0.5-0.5,0.7-1.1,0.7-1.9V13.8z"/>
            <path fill="#C03A2B" d="M57.6,0.8h2.9V19h-2.9V0.8z"/>
            <path fill="#C03A2B" d="M69.3,16.3l6.2-6.5v0h-5.9V7.4h9.4V10l-6.2,6.6h6.5V19h-9.9V16.3z"/>
            <path fill="#C03A2B" d="M88.8,17.4L88.8,17.4c-0.5,0.7-1,1.1-1.7,1.4c-0.6,0.3-1.3,0.4-2.1,0.4c-0.5,0-1-0.1-1.5-0.2
      	c-0.5-0.1-1-0.4-1.3-0.6c-0.4-0.3-0.7-0.6-0.9-1.1c-0.2-0.4-0.4-0.9-0.4-1.5c0-0.6,0.1-1.2,0.3-1.6c0.2-0.4,0.5-0.8,0.9-1.1
      	c0.4-0.3,0.8-0.5,1.3-0.7c0.5-0.2,1-0.3,1.5-0.4c0.5-0.1,1.1-0.1,1.6-0.2c0.5,0,1.1,0,1.5,0h0.7v-0.3c0-0.7-0.2-1.3-0.7-1.6
      	S87,9.3,86.2,9.3c-0.6,0-1.2,0.1-1.7,0.3c-0.5,0.2-1,0.5-1.4,0.9L81.6,9c0.6-0.7,1.4-1.1,2.2-1.4s1.7-0.4,2.7-0.4
      	c0.8,0,1.5,0.1,2.1,0.3c0.6,0.2,1,0.4,1.4,0.7c0.4,0.3,0.7,0.6,0.9,1c0.2,0.4,0.3,0.8,0.4,1.1c0.1,0.4,0.1,0.8,0.2,1.1
      	c0,0.4,0,0.7,0,0.9V19h-2.6V17.4z M88.7,13.8h-0.6c-0.4,0-0.8,0-1.3,0c-0.5,0-1,0.1-1.4,0.2c-0.4,0.1-0.8,0.3-1.1,0.5
      	c-0.3,0.2-0.5,0.6-0.5,1c0,0.3,0.1,0.5,0.2,0.7c0.1,0.2,0.3,0.3,0.5,0.5c0.2,0.1,0.4,0.2,0.6,0.3c0.2,0.1,0.5,0.1,0.7,0.1
      	c1,0,1.7-0.2,2.2-0.7c0.5-0.5,0.7-1.1,0.7-1.9V13.8z"/>
            <path fill="#C03A2B" d="M93.2,9.9V7.4h2.4V4.1h2.9v3.3h3.2v2.4h-3.2v5c0,0.6,0.1,1,0.3,1.4c0.2,0.3,0.6,0.5,1.3,0.5
      	c0.3,0,0.5,0,0.8-0.1c0.3-0.1,0.5-0.1,0.7-0.3v2.4c-0.3,0.1-0.7,0.2-1.1,0.3c-0.4,0.1-0.8,0.1-1.2,0.1c-0.8,0-1.4-0.1-1.9-0.3
      	c-0.5-0.2-0.9-0.4-1.2-0.8c-0.3-0.3-0.5-0.8-0.6-1.3c-0.1-0.5-0.2-1.1-0.2-1.8V9.9H93.2z"/>
            <path fill="#C03A2B" d="M109.6,13.2c0-0.9,0.2-1.7,0.5-2.5c0.3-0.7,0.8-1.4,1.3-1.9c0.6-0.5,1.2-0.9,2-1.2c0.8-0.3,1.6-0.4,2.4-0.4
      	c0.9,0,1.7,0.1,2.4,0.4s1.4,0.7,2,1.2c0.6,0.5,1,1.2,1.3,1.9c0.3,0.7,0.5,1.6,0.5,2.5c0,0.9-0.2,1.7-0.5,2.5
      	c-0.3,0.7-0.8,1.4-1.3,1.9c-0.6,0.5-1.2,0.9-2,1.2s-1.6,0.4-2.4,0.4c-0.9,0-1.7-0.1-2.4-0.4c-0.8-0.3-1.4-0.7-2-1.2
      	c-0.6-0.5-1-1.2-1.3-1.9C109.7,14.9,109.6,14.1,109.6,13.2z M112.4,13.2c0,0.4,0.1,0.9,0.2,1.3s0.4,0.8,0.7,1.1
      	c0.3,0.3,0.7,0.6,1.1,0.8c0.4,0.2,0.9,0.3,1.4,0.3c0.5,0,1-0.1,1.4-0.3c0.4-0.2,0.8-0.4,1.1-0.8c0.3-0.3,0.5-0.7,0.7-1.1
      	s0.2-0.8,0.2-1.3s-0.1-0.9-0.2-1.3c-0.2-0.4-0.4-0.8-0.7-1.1c-0.3-0.3-0.7-0.6-1.1-0.8c-0.4-0.2-0.9-0.3-1.4-0.3
      	c-0.5,0-1,0.1-1.4,0.3c-0.4,0.2-0.8,0.4-1.1,0.8c-0.3,0.3-0.5,0.7-0.7,1.1C112.5,12.3,112.4,12.7,112.4,13.2z"/>
            <path fill="#C03A2B" d="M124.8,7.4h2.7v1.8h0c0.3-0.6,0.7-1.1,1.2-1.5c0.6-0.4,1.3-0.6,2.3-0.6c0.8,0,1.4,0.1,2,0.4s1,0.6,1.3,1
      	c0.3,0.4,0.6,0.9,0.7,1.4c0.1,0.5,0.2,1.1,0.2,1.7V19h-2.9v-5.8c0-0.3,0-0.7,0-1.1c0-0.4-0.1-0.8-0.3-1.1c-0.1-0.3-0.3-0.6-0.6-0.9
      	c-0.3-0.2-0.7-0.3-1.2-0.3c-0.5,0-0.9,0.1-1.2,0.2c-0.3,0.2-0.6,0.4-0.8,0.6c-0.2,0.3-0.4,0.6-0.5,0.9c-0.1,0.4-0.1,0.7-0.1,1.1V19
      	h-2.9V7.4z"/>
            <path fill="#2C3E50" d="M10.7,42L10.7,42c-0.5,0.7-1,1.2-1.7,1.5C8.2,43.9,7.5,44,6.7,44c-0.9,0-1.7-0.2-2.4-0.5
      	c-0.7-0.3-1.3-0.7-1.8-1.3s-0.9-1.2-1.1-1.9S1,38.8,1,38s0.1-1.6,0.4-2.4c0.3-0.7,0.7-1.4,1.1-1.9c0.5-0.5,1.1-1,1.8-1.3
      	c0.7-0.3,1.4-0.5,2.3-0.5c0.5,0,1,0.1,1.4,0.2c0.4,0.1,0.8,0.3,1.1,0.4c0.3,0.2,0.6,0.4,0.8,0.6c0.2,0.2,0.4,0.4,0.6,0.6h0.1v-8.1
      	h2.9v18.1h-2.7V42z M3.9,38c0,0.4,0.1,0.9,0.2,1.3c0.2,0.4,0.4,0.8,0.7,1.1c0.3,0.3,0.7,0.6,1.1,0.8c0.4,0.2,0.9,0.3,1.4,0.3
      	c0.5,0,1-0.1,1.4-0.3c0.4-0.2,0.8-0.4,1.1-0.8c0.3-0.3,0.5-0.7,0.7-1.1s0.2-0.8,0.2-1.3s-0.1-0.9-0.2-1.3c-0.2-0.4-0.4-0.8-0.7-1.1
      	c-0.3-0.3-0.7-0.6-1.1-0.8c-0.4-0.2-0.9-0.3-1.4-0.3c-0.5,0-1,0.1-1.4,0.3c-0.4,0.2-0.8,0.4-1.1,0.8c-0.3,0.3-0.5,0.7-0.7,1.1
      	C3.9,37.1,3.9,37.5,3.9,38z"/>
            <path fill="#2C3E50" d="M19,39c0.1,0.9,0.4,1.5,1,2s1.3,0.7,2.1,0.7c0.7,0,1.3-0.1,1.8-0.4c0.5-0.3,0.9-0.7,1.3-1.1l2.1,1.6
      	c-0.7,0.8-1.4,1.4-2.3,1.8c-0.8,0.4-1.7,0.5-2.6,0.5c-0.9,0-1.7-0.1-2.4-0.4c-0.8-0.3-1.4-0.7-2-1.2c-0.6-0.5-1-1.2-1.3-1.9
      	c-0.3-0.7-0.5-1.6-0.5-2.5c0-0.9,0.2-1.7,0.5-2.5c0.3-0.7,0.8-1.4,1.3-1.9c0.6-0.5,1.2-0.9,2-1.2c0.8-0.3,1.6-0.4,2.4-0.4
      	c0.8,0,1.5,0.1,2.2,0.4c0.7,0.3,1.2,0.7,1.7,1.2c0.5,0.5,0.8,1.2,1.1,2c0.3,0.8,0.4,1.7,0.4,2.7V39H19z M24.9,36.8
      	c0-0.8-0.3-1.5-0.8-2c-0.5-0.5-1.2-0.7-2.1-0.7c-0.9,0-1.5,0.2-2.1,0.7s-0.8,1.2-0.9,2H24.9z"/>
            <path fill="#2C3E50" d="M36.6,35.4c-0.6-0.8-1.3-1.2-2.3-1.2c-0.4,0-0.8,0.1-1.1,0.3c-0.4,0.2-0.6,0.5-0.6,0.9
      	c0,0.4,0.2,0.6,0.5,0.8c0.3,0.2,0.7,0.3,1.2,0.4c0.5,0.1,1,0.2,1.5,0.3c0.5,0.1,1,0.3,1.5,0.6c0.5,0.2,0.8,0.6,1.2,1
      	c0.3,0.4,0.5,1,0.5,1.8c0,0.7-0.1,1.3-0.4,1.7c-0.3,0.5-0.7,0.9-1.2,1.1c-0.5,0.3-1,0.5-1.6,0.6C35.1,44,34.5,44,33.9,44
      	c-0.9,0-1.7-0.1-2.5-0.4c-0.8-0.3-1.4-0.7-2-1.4l1.9-1.8c0.4,0.4,0.8,0.8,1.2,1c0.4,0.3,0.9,0.4,1.5,0.4c0.2,0,0.4,0,0.6-0.1
      	c0.2,0,0.4-0.1,0.6-0.2c0.2-0.1,0.3-0.3,0.5-0.4s0.2-0.4,0.2-0.6c0-0.4-0.2-0.7-0.5-0.9c-0.3-0.2-0.7-0.3-1.2-0.5
      	c-0.5-0.1-1-0.2-1.5-0.3c-0.5-0.1-1-0.3-1.5-0.5c-0.5-0.2-0.8-0.6-1.2-1c-0.3-0.4-0.5-1-0.5-1.7c0-0.6,0.1-1.2,0.4-1.7
      	c0.3-0.5,0.6-0.9,1-1.2c0.4-0.3,0.9-0.5,1.5-0.7c0.6-0.1,1.1-0.2,1.7-0.2c0.8,0,1.5,0.1,2.3,0.4c0.8,0.3,1.4,0.7,1.8,1.4L36.6,35.4z
      	"/>
            <path fill="#2C3E50" d="M40.8,28.3c0-0.5,0.2-0.9,0.5-1.2c0.3-0.3,0.8-0.5,1.3-0.5c0.5,0,1,0.2,1.3,0.5c0.4,0.3,0.5,0.7,0.5,1.2
      	c0,0.5-0.2,0.9-0.5,1.2c-0.4,0.3-0.8,0.5-1.3,0.5c-0.5,0-1-0.2-1.3-0.5C40.9,29.2,40.8,28.8,40.8,28.3z M41.2,32.2H44v11.5h-2.9
      	V32.2z"/>
            <path fill="#2C3E50" d="M59.2,32.2v10.5c0,1-0.1,2-0.4,2.8c-0.3,0.8-0.7,1.6-1.2,2.1s-1.2,1-2,1.4c-0.8,0.3-1.8,0.5-2.9,0.5
      	c-1.1,0-2.1-0.1-3-0.4c-1-0.3-1.8-0.8-2.7-1.5l1.7-2.4c0.6,0.5,1.2,0.9,1.8,1.2c0.6,0.3,1.3,0.4,2.2,0.4c0.7,0,1.3-0.1,1.7-0.3
      	c0.5-0.2,0.8-0.5,1.1-0.8s0.5-0.7,0.6-1.2c0.1-0.5,0.2-1,0.2-1.6v-0.8h0c-0.4,0.6-1,1-1.7,1.3c-0.7,0.3-1.4,0.4-2.1,0.4
      	c-0.9,0-1.6-0.2-2.4-0.5c-0.7-0.3-1.3-0.7-1.8-1.3s-0.9-1.2-1.2-1.9c-0.3-0.7-0.4-1.5-0.4-2.3c0-0.8,0.1-1.6,0.4-2.4
      	c0.3-0.7,0.6-1.4,1.1-1.9c0.5-0.5,1.1-1,1.8-1.3c0.7-0.3,1.5-0.5,2.4-0.5c0.8,0,1.6,0.2,2.3,0.5c0.7,0.3,1.3,0.8,1.7,1.5h0v-1.7
      	H59.2z M53.1,34.5c-0.5,0-1,0.1-1.4,0.3s-0.8,0.4-1.1,0.7c-0.3,0.3-0.5,0.7-0.7,1.1c-0.2,0.4-0.3,0.9-0.3,1.4c0,0.5,0.1,0.9,0.3,1.3
      	s0.4,0.8,0.7,1.1c0.3,0.3,0.7,0.5,1.1,0.7c0.4,0.2,0.9,0.3,1.3,0.3c0.5,0,1-0.1,1.4-0.3c0.4-0.2,0.8-0.4,1.1-0.7
      	c0.3-0.3,0.5-0.7,0.7-1.1c0.2-0.4,0.2-0.9,0.2-1.3c0-1-0.3-1.8-0.9-2.4S54.1,34.5,53.1,34.5z"/>
            <path fill="#2C3E50" d="M62.5,32.2h2.7v1.8h0c0.3-0.6,0.7-1.1,1.2-1.5c0.6-0.4,1.3-0.6,2.3-0.6c0.8,0,1.4,0.1,2,0.4s1,0.6,1.3,1
      	c0.3,0.4,0.6,0.9,0.7,1.4c0.1,0.5,0.2,1.1,0.2,1.7v7.3h-2.9v-5.8c0-0.3,0-0.7,0-1.1c0-0.4-0.1-0.8-0.3-1.1c-0.1-0.3-0.3-0.6-0.6-0.9
      	c-0.3-0.2-0.7-0.3-1.2-0.3c-0.5,0-0.9,0.1-1.2,0.2c-0.3,0.2-0.6,0.4-0.8,0.6c-0.2,0.3-0.4,0.6-0.5,0.9c-0.1,0.4-0.1,0.7-0.1,1.1v6.3
      	h-2.9V32.2z"/>
            <path fill="#2C3E50" d="M83.4,25.6h2.9v18.1h-2.9V25.6z"/>
            <path fill="#2C3E50" d="M96.8,42.2L96.8,42.2c-0.5,0.7-1,1.1-1.7,1.4C94.5,43.9,93.8,44,93,44c-0.5,0-1-0.1-1.5-0.2
      	c-0.5-0.1-1-0.4-1.3-0.6c-0.4-0.3-0.7-0.6-0.9-1.1c-0.2-0.4-0.4-0.9-0.4-1.5c0-0.6,0.1-1.2,0.3-1.6c0.2-0.4,0.5-0.8,0.9-1.1
      	c0.4-0.3,0.8-0.5,1.3-0.7c0.5-0.2,1-0.3,1.5-0.4c0.5-0.1,1.1-0.1,1.6-0.2c0.5,0,1.1,0,1.5,0h0.7v-0.3c0-0.7-0.2-1.3-0.7-1.6
      	s-1.1-0.5-1.9-0.5c-0.6,0-1.2,0.1-1.7,0.3c-0.5,0.2-1,0.5-1.4,0.9l-1.5-1.5c0.6-0.7,1.4-1.1,2.2-1.4s1.7-0.4,2.7-0.4
      	c0.8,0,1.5,0.1,2.1,0.3c0.6,0.2,1,0.4,1.4,0.7c0.4,0.3,0.7,0.6,0.9,1c0.2,0.4,0.3,0.8,0.4,1.1s0.1,0.8,0.2,1.1c0,0.4,0,0.7,0,0.9
      	v6.6h-2.6V42.2z M96.6,38.6H96c-0.4,0-0.8,0-1.3,0c-0.5,0-1,0.1-1.4,0.2c-0.4,0.1-0.8,0.3-1.1,0.5s-0.5,0.6-0.5,1
      	c0,0.3,0.1,0.5,0.2,0.7c0.1,0.2,0.3,0.3,0.5,0.5c0.2,0.1,0.4,0.2,0.6,0.3c0.2,0.1,0.5,0.1,0.7,0.1c1,0,1.7-0.2,2.2-0.7
      	c0.5-0.5,0.7-1.1,0.7-1.9V38.6z"/>
            <path fill="#2C3E50" d="M102.5,25.6h2.9v8.1h0.1c0.1-0.2,0.3-0.4,0.6-0.6c0.2-0.2,0.5-0.4,0.8-0.6c0.3-0.2,0.7-0.3,1.1-0.4
      	c0.4-0.1,0.9-0.2,1.4-0.2c0.8,0,1.6,0.2,2.3,0.5s1.3,0.7,1.8,1.3c0.5,0.5,0.9,1.2,1.1,1.9c0.3,0.7,0.4,1.5,0.4,2.4s-0.1,1.6-0.4,2.4
      	c-0.3,0.7-0.6,1.4-1.1,1.9s-1.1,1-1.8,1.3s-1.5,0.5-2.4,0.5c-0.8,0-1.6-0.2-2.3-0.5c-0.7-0.3-1.3-0.8-1.7-1.5h0v1.7h-2.7V25.6z
      	 M112,38c0-0.4-0.1-0.9-0.2-1.3c-0.2-0.4-0.4-0.8-0.7-1.1c-0.3-0.3-0.7-0.6-1.1-0.8c-0.4-0.2-0.9-0.3-1.4-0.3c-0.5,0-1,0.1-1.4,0.3
      	c-0.4,0.2-0.8,0.4-1.1,0.8c-0.3,0.3-0.5,0.7-0.7,1.1c-0.2,0.4-0.2,0.8-0.2,1.3s0.1,0.9,0.2,1.3s0.4,0.8,0.7,1.1
      	c0.3,0.3,0.7,0.6,1.1,0.8c0.4,0.2,0.9,0.3,1.4,0.3c0.5,0,1-0.1,1.4-0.3c0.4-0.2,0.8-0.4,1.1-0.8c0.3-0.3,0.5-0.7,0.7-1.1
      	S112,38.4,112,38z"/>
            <g>
                <path fill="#C03A2B" d="M14.4,14.6c0,0.1-0.1,0.2-0.2,0.2c-0.1,0-0.2-0.1-0.2-0.2c0-0.1,0.1-0.2,0.2-0.2
      		C14.3,14.4,14.4,14.5,14.4,14.6z"/>
                <path fill="#C03A2B" d="M14.2,14.8c-0.1,0-0.2-0.1-0.2-0.2c0-0.1,0.1-0.2,0.2-0.2c0.1,0,0.2,0.1,0.2,0.2
      		C14.4,14.7,14.3,14.8,14.2,14.8z M14.2,14.4c-0.1,0-0.2,0.1-0.2,0.2c0,0.1,0.1,0.2,0.2,0.2c0.1,0,0.2-0.1,0.2-0.2
      		C14.3,14.5,14.3,14.4,14.2,14.4z"/>
            </g>
            <g>
                <path fill="#C03A2B" d="M16,14.3c0,0.4-0.4,0.8-0.8,0.8c-0.4,0-0.8-0.4-0.8-0.8c0-0.4,0.4-0.8,0.8-0.8C15.6,13.5,16,13.8,16,14.3z"/>
                <path fill="#C03A2B" d="M15.2,15.2c-0.5,0-0.9-0.4-0.9-0.9c0-0.5,0.4-0.9,0.9-0.9c0.5,0,0.9,0.4,0.9,0.9
      		C16.1,14.8,15.7,15.2,15.2,15.2z M15.2,13.6c-0.4,0-0.7,0.3-0.7,0.7c0,0.4,0.3,0.7,0.7,0.7c0.4,0,0.7-0.3,0.7-0.7
      		C15.8,13.9,15.5,13.6,15.2,13.6z"/>
            </g>
            <g>
                <path fill="#C03A2B" d="M17,13c0,0.1-0.1,0.3-0.3,0.3c-0.1,0-0.3-0.1-0.3-0.3c0-0.1,0.1-0.3,0.3-0.3C16.9,12.8,17,12.9,17,13z"/>
                <path fill="#C03A2B" d="M16.8,13.3c-0.2,0-0.3-0.1-0.3-0.3c0-0.2,0.1-0.3,0.3-0.3c0.2,0,0.3,0.1,0.3,0.3
      		C17,13.2,16.9,13.3,16.8,13.3z M16.8,12.8c-0.1,0-0.2,0.1-0.2,0.2c0,0.1,0.1,0.2,0.2,0.2c0.1,0,0.2-0.1,0.2-0.2
      		C17,12.9,16.9,12.8,16.8,12.8z"/>
            </g>
            <g>
                <path fill="#C03A2B" d="M14.5,15c0,0.1-0.1,0.2-0.2,0.2c-0.1,0-0.2-0.1-0.2-0.2c0-0.1,0.1-0.2,0.2-0.2C14.4,14.8,14.5,14.9,14.5,15
      		z"/>
                <path fill="#C03A2B" d="M14.3,15.3c-0.1,0-0.3-0.1-0.3-0.3c0-0.1,0.1-0.3,0.3-0.3c0.1,0,0.3,0.1,0.3,0.3
      		C14.6,15.2,14.4,15.3,14.3,15.3z M14.3,14.8c-0.1,0-0.2,0.1-0.2,0.2c0,0.1,0.1,0.2,0.2,0.2c0.1,0,0.2-0.1,0.2-0.2
      		C14.5,14.9,14.4,14.8,14.3,14.8z"/>
            </g>
            <g>
                <path fill="#C03A2B" d="M16.8,14.8c0,0.2-0.2,0.4-0.4,0.4c-0.2,0-0.4-0.2-0.4-0.4c0-0.2,0.2-0.4,0.4-0.4
      		C16.6,14.3,16.8,14.5,16.8,14.8z"/>
                <path fill="#C03A2B" d="M16.4,15.3c-0.3,0-0.5-0.2-0.5-0.5c0-0.3,0.2-0.5,0.5-0.5c0.3,0,0.5,0.2,0.5,0.5
      		C16.9,15,16.7,15.3,16.4,15.3z M16.4,14.4c-0.2,0-0.4,0.2-0.4,0.4c0,0.2,0.2,0.4,0.4,0.4c0.2,0,0.4-0.2,0.4-0.4
      		C16.8,14.6,16.6,14.4,16.4,14.4z"/>
            </g>
            <g>
                <path fill="#C03A2B" d="M16.8,13.8c0,0.3-0.2,0.5-0.5,0.5c-0.3,0-0.5-0.2-0.5-0.5c0-0.3,0.2-0.5,0.5-0.5
      		C16.6,13.3,16.8,13.6,16.8,13.8z"/>
                <path fill="#C03A2B" d="M16.3,14.4c-0.3,0-0.6-0.3-0.6-0.6c0-0.3,0.3-0.6,0.6-0.6c0.3,0,0.6,0.3,0.6,0.6
      		C16.9,14.2,16.7,14.4,16.3,14.4z M16.3,13.4c-0.2,0-0.4,0.2-0.4,0.4c0,0.2,0.2,0.4,0.4,0.4c0.2,0,0.4-0.2,0.4-0.4
      		C16.8,13.6,16.6,13.4,16.3,13.4z"/>
            </g>
            <g>
                <path fill="#C03A2B" d="M16.2,12.7c0,0.3-0.2,0.5-0.5,0.5c-0.3,0-0.5-0.2-0.5-0.5c0-0.3,0.2-0.5,0.5-0.5
      		C16,12.2,16.2,12.4,16.2,12.7z"/>
                <path fill="#C03A2B" d="M15.7,13.3c-0.3,0-0.6-0.3-0.6-0.6c0-0.3,0.3-0.6,0.6-0.6c0.3,0,0.6,0.3,0.6,0.6
      		C16.3,13.1,16.1,13.3,15.7,13.3z M15.7,12.3c-0.2,0-0.4,0.2-0.4,0.4c0,0.2,0.2,0.4,0.4,0.4c0.2,0,0.4-0.2,0.4-0.4
      		C16.2,12.5,16,12.3,15.7,12.3z"/>
            </g>
            <g>
                <path fill="#C03A2B" d="M14.6,14.1c0,0.1-0.1,0.3-0.3,0.3c-0.1,0-0.3-0.1-0.3-0.3c0-0.1,0.1-0.3,0.3-0.3
      		C14.4,13.8,14.6,13.9,14.6,14.1z"/>
                <path fill="#C03A2B" d="M14.3,14.4c-0.2,0-0.3-0.1-0.3-0.3c0-0.2,0.1-0.3,0.3-0.3c0.2,0,0.3,0.1,0.3,0.3
      		C14.6,14.2,14.5,14.4,14.3,14.4z M14.3,13.9c-0.1,0-0.2,0.1-0.2,0.2c0,0.1,0.1,0.2,0.2,0.2c0.1,0,0.2-0.1,0.2-0.2
      		C14.5,14,14.4,13.9,14.3,13.9z"/>
            </g>
            <g>
                <path fill="#C03A2B" d="M14.5,13.5c0,0.1-0.1,0.2-0.2,0.2c-0.1,0-0.2-0.1-0.2-0.2c0-0.1,0.1-0.2,0.2-0.2
      		C14.4,13.3,14.5,13.4,14.5,13.5z"/>
                <path fill="#C03A2B" d="M14.3,13.8c-0.1,0-0.3-0.1-0.3-0.3c0-0.1,0.1-0.3,0.3-0.3c0.1,0,0.3,0.1,0.3,0.3
      		C14.6,13.7,14.4,13.8,14.3,13.8z M14.3,13.3c-0.1,0-0.2,0.1-0.2,0.2c0,0.1,0.1,0.2,0.2,0.2c0.1,0,0.2-0.1,0.2-0.2
      		C14.5,13.4,14.4,13.3,14.3,13.3z"/>
            </g>
            <g>
                <path fill="#C03A2B" d="M15.4,13.2c0,0.2-0.1,0.3-0.3,0.3c-0.2,0-0.3-0.1-0.3-0.3c0-0.2,0.1-0.3,0.3-0.3
      		C15.2,12.9,15.4,13,15.4,13.2z"/>
                <path fill="#C03A2B" d="M15,13.6c-0.2,0-0.4-0.2-0.4-0.4c0-0.2,0.2-0.4,0.4-0.4c0.2,0,0.4,0.2,0.4,0.4C15.4,13.4,15.2,13.6,15,13.6
      		z M15,12.9c-0.2,0-0.3,0.1-0.3,0.3c0,0.2,0.1,0.3,0.3,0.3c0.2,0,0.3-0.1,0.3-0.3C15.3,13,15.2,12.9,15,12.9z"/>
            </g>
            <g>
                <path fill="#C03A2B" d="M15,12.7C15,12.7,15,12.8,15,12.7c-0.1,0.1-0.2,0-0.2,0C14.8,12.6,14.9,12.6,15,12.7
      		C15,12.6,15,12.6,15,12.7z"/>
                <path fill="#C03A2B" d="M14.9,12.8C14.9,12.8,14.8,12.7,14.9,12.8c-0.1-0.1,0-0.2,0-0.2C15,12.6,15,12.6,14.9,12.8
      		C15,12.7,15,12.8,14.9,12.8z M14.9,12.6C14.9,12.6,14.9,12.6,14.9,12.6c-0.1,0.1,0,0.1,0,0.1C15,12.7,15,12.7,14.9,12.6
      		C15,12.6,15,12.6,14.9,12.6z"/>
            </g>
            <g>
                <path fill="#C03A2B" d="M15.2,12.3C15.2,12.3,15.1,12.3,15.2,12.3c-0.1,0.1-0.2,0-0.2,0C15,12.2,15.1,12.2,15.2,12.3
      		C15.1,12.2,15.2,12.2,15.2,12.3z"/>
                <path fill="#C03A2B" d="M15.1,12.4C15.1,12.4,15,12.3,15.1,12.4c-0.1-0.1,0-0.2,0-0.2C15.2,12.2,15.2,12.2,15.1,12.4
      		C15.2,12.3,15.2,12.4,15.1,12.4z M15.1,12.2C15.1,12.2,15,12.2,15.1,12.2c-0.1,0.1,0,0.1,0,0.1C15.1,12.3,15.2,12.3,15.1,12.2
      		C15.2,12.2,15.1,12.2,15.1,12.2z"/>
            </g>
            <g>
                <path fill="#C03A2B" d="M16.7,12.5c0,0.1-0.1,0.1-0.1,0.1c-0.1,0-0.1-0.1-0.1-0.1c0-0.1,0.1-0.1,0.1-0.1
      		C16.6,12.4,16.7,12.4,16.7,12.5z"/>
                <path fill="#C03A2B" d="M16.5,12.7c-0.1,0-0.2-0.1-0.2-0.2c0-0.1,0.1-0.2,0.2-0.2c0.1,0,0.2,0.1,0.2,0.2
      		C16.7,12.6,16.6,12.7,16.5,12.7z M16.5,12.4c-0.1,0-0.1,0.1-0.1,0.1c0,0.1,0.1,0.1,0.1,0.1c0.1,0,0.1-0.1,0.1-0.1
      		C16.7,12.4,16.6,12.4,16.5,12.4z"/>
            </g>
            <g>
                <path fill="#C03A2B" d="M15.3,11.9c0,0.2-0.1,0.3-0.3,0.3c-0.2,0-0.3-0.1-0.3-0.3c0-0.2,0.1-0.3,0.3-0.3
      		C15.2,11.5,15.3,11.7,15.3,11.9z"/>
                <path fill="#C03A2B" d="M15,12.3c-0.2,0-0.4-0.2-0.4-0.4c0-0.2,0.2-0.4,0.4-0.4c0.2,0,0.4,0.2,0.4,0.4C15.4,12.1,15.2,12.3,15,12.3
      		z M15,11.6c-0.2,0-0.3,0.1-0.3,0.3c0,0.2,0.1,0.3,0.3,0.3c0.2,0,0.3-0.1,0.3-0.3C15.3,11.7,15.1,11.6,15,11.6z"/>
            </g>
            <g>
                <path fill="#C03A2B" d="M15.8,11.9c0,0.1-0.1,0.3-0.3,0.3c-0.1,0-0.3-0.1-0.3-0.3c0-0.1,0.1-0.3,0.3-0.3
      		C15.7,11.7,15.8,11.8,15.8,11.9z"/>
                <path fill="#C03A2B" d="M15.5,12.2c-0.2,0-0.3-0.1-0.3-0.3c0-0.2,0.1-0.3,0.3-0.3c0.2,0,0.3,0.1,0.3,0.3
      		C15.8,12.1,15.7,12.2,15.5,12.2z M15.5,11.7c-0.1,0-0.2,0.1-0.2,0.2c0,0.1,0.1,0.2,0.2,0.2c0.1,0,0.2-0.1,0.2-0.2
      		C15.8,11.8,15.7,11.7,15.5,11.7z"/>
            </g>
            <g>
                <path fill="#C03A2B" d="M16.7,12.1c0,0.1-0.1,0.2-0.2,0.2c-0.1,0-0.2-0.1-0.2-0.2c0-0.1,0.1-0.2,0.2-0.2
      		C16.6,11.9,16.7,12,16.7,12.1z"/>
                <path fill="#C03A2B" d="M16.5,12.3c-0.1,0-0.2-0.1-0.2-0.2c0-0.1,0.1-0.2,0.2-0.2c0.1,0,0.2,0.1,0.2,0.2
      		C16.7,12.2,16.6,12.3,16.5,12.3z M16.5,12c-0.1,0-0.2,0.1-0.2,0.2c0,0.1,0.1,0.2,0.2,0.2c0.1,0,0.2-0.1,0.2-0.2
      		C16.6,12,16.6,12,16.5,12z"/>
            </g>
            <g>
                <path fill="#C03A2B" d="M14.8,12.3c0,0.1-0.1,0.2-0.2,0.2c-0.1,0-0.2-0.1-0.2-0.2c0-0.1,0.1-0.2,0.2-0.2
      		C14.7,12.1,14.8,12.2,14.8,12.3z"/>
                <path fill="#C03A2B" d="M14.6,12.5c-0.1,0-0.2-0.1-0.2-0.2c0-0.1,0.1-0.2,0.2-0.2c0.1,0,0.2,0.1,0.2,0.2
      		C14.8,12.4,14.8,12.5,14.6,12.5z M14.6,12.2c-0.1,0-0.2,0.1-0.2,0.2c0,0.1,0.1,0.2,0.2,0.2c0.1,0,0.2-0.1,0.2-0.2
      		C14.8,12.2,14.7,12.2,14.6,12.2z"/>
            </g>
            <g>
                <path fill="#C03A2B" d="M14.8,13c0,0.2-0.2,0.4-0.4,0.4c-0.2,0-0.4-0.2-0.4-0.4c0-0.2,0.2-0.4,0.4-0.4C14.6,12.7,14.8,12.8,14.8,13
      		z"/>
                <path fill="#C03A2B" d="M14.4,13.4c-0.2,0-0.4-0.2-0.4-0.4c0-0.2,0.2-0.4,0.4-0.4c0.2,0,0.4,0.2,0.4,0.4
      		C14.8,13.2,14.6,13.4,14.4,13.4z M14.4,12.7c-0.2,0-0.3,0.1-0.3,0.3c0,0.2,0.1,0.3,0.3,0.3c0.2,0,0.3-0.1,0.3-0.3
      		C14.7,12.9,14.6,12.7,14.4,12.7z"/>
            </g>
            <g>
                <path fill="#C03A2B" d="M16.8,11.3c0,0.2-0.1,0.3-0.3,0.3c-0.2,0-0.3-0.1-0.3-0.3c0-0.2,0.1-0.3,0.3-0.3
      		C16.7,11,16.8,11.2,16.8,11.3z"/>
                <path fill="#C03A2B" d="M16.5,11.7c-0.2,0-0.4-0.2-0.4-0.4c0-0.2,0.2-0.4,0.4-0.4c0.2,0,0.4,0.2,0.4,0.4
      		C16.9,11.6,16.7,11.7,16.5,11.7z M16.5,11.1c-0.2,0-0.3,0.1-0.3,0.3c0,0.2,0.1,0.3,0.3,0.3c0.2,0,0.3-0.1,0.3-0.3
      		C16.8,11.2,16.7,11.1,16.5,11.1z"/>
            </g>
            <g>
                <path fill="#C03A2B" d="M16.7,13c0,0.2-0.2,0.3-0.3,0.3c-0.2,0-0.3-0.2-0.3-0.3c0-0.2,0.2-0.3,0.3-0.3C16.6,12.7,16.7,12.8,16.7,13
      		z"/>
                <path fill="#C03A2B" d="M16.4,13.4c-0.2,0-0.4-0.2-0.4-0.4c0-0.2,0.2-0.4,0.4-0.4c0.2,0,0.4,0.2,0.4,0.4
      		C16.8,13.2,16.6,13.4,16.4,13.4z M16.4,12.7c-0.2,0-0.3,0.1-0.3,0.3c0,0.2,0.1,0.3,0.3,0.3c0.2,0,0.3-0.1,0.3-0.3
      		C16.7,12.8,16.5,12.7,16.4,12.7z"/>
            </g>
            <g>
                <path fill="#C03A2B" d="M14.9,11.3c0,0.2-0.2,0.3-0.3,0.3c-0.2,0-0.3-0.2-0.3-0.3c0-0.2,0.2-0.3,0.3-0.3
      		C14.8,11,14.9,11.2,14.9,11.3z"/>
                <path fill="#C03A2B" d="M14.6,11.8c-0.2,0-0.4-0.2-0.4-0.4c0-0.2,0.2-0.4,0.4-0.4c0.2,0,0.4,0.2,0.4,0.4
      		C15,11.6,14.8,11.8,14.6,11.8z M14.6,11.1c-0.2,0-0.3,0.1-0.3,0.3c0,0.2,0.1,0.3,0.3,0.3c0.2,0,0.3-0.1,0.3-0.3
      		C14.9,11.2,14.7,11.1,14.6,11.1z"/>
            </g>
            <g>
                <path fill="#C03A2B" d="M15.7,10.6c0,0.2-0.2,0.3-0.3,0.3c-0.2,0-0.3-0.2-0.3-0.3c0-0.2,0.2-0.3,0.3-0.3
      		C15.6,10.2,15.7,10.4,15.7,10.6z"/>
                <path fill="#C03A2B" d="M15.4,11c-0.2,0-0.4-0.2-0.4-0.4c0-0.2,0.2-0.4,0.4-0.4c0.2,0,0.4,0.2,0.4,0.4C15.8,10.8,15.6,11,15.4,11z
      		 M15.4,10.3c-0.2,0-0.3,0.1-0.3,0.3c0,0.2,0.1,0.3,0.3,0.3c0.2,0,0.3-0.1,0.3-0.3C15.7,10.4,15.5,10.3,15.4,10.3z"/>
            </g>
            <g>
                <path fill="#C03A2B" d="M16.7,10.4c0,0.2-0.2,0.3-0.3,0.3c-0.2,0-0.3-0.2-0.3-0.3c0-0.2,0.2-0.3,0.3-0.3
      		C16.5,10.1,16.7,10.2,16.7,10.4z"/>
                <path fill="#C03A2B" d="M16.3,10.8c-0.2,0-0.4-0.2-0.4-0.4c0-0.2,0.2-0.4,0.4-0.4c0.2,0,0.4,0.2,0.4,0.4
      		C16.7,10.6,16.6,10.8,16.3,10.8z M16.3,10.1c-0.2,0-0.3,0.1-0.3,0.3c0,0.2,0.1,0.3,0.3,0.3c0.2,0,0.3-0.1,0.3-0.3
      		C16.6,10.2,16.5,10.1,16.3,10.1z"/>
            </g>
            <g>
                <path fill="#C03A2B" d="M16.3,11.9c0,0.1-0.1,0.2-0.2,0.2c-0.1,0-0.2-0.1-0.2-0.2c0-0.1,0.1-0.2,0.2-0.2
      		C16.2,11.7,16.3,11.8,16.3,11.9z"/>
                <path fill="#C03A2B" d="M16.1,12.1c-0.1,0-0.2-0.1-0.2-0.2c0-0.1,0.1-0.2,0.2-0.2c0.1,0,0.2,0.1,0.2,0.2
      		C16.3,12,16.2,12.1,16.1,12.1z M16.1,11.7c-0.1,0-0.1,0.1-0.1,0.1C16,12,16,12,16.1,12c0.1,0,0.1-0.1,0.1-0.1
      		C16.3,11.8,16.2,11.7,16.1,11.7z"/>
            </g>
            <g>
                <path fill="#C03A2B" d="M16.1,11.3c0,0.1-0.1,0.2-0.2,0.2c-0.1,0-0.2-0.1-0.2-0.2c0-0.1,0.1-0.2,0.2-0.2
      		C16,11.1,16.1,11.2,16.1,11.3z"/>
                <path fill="#C03A2B" d="M15.9,11.6c-0.1,0-0.2-0.1-0.2-0.2c0-0.1,0.1-0.2,0.2-0.2c0.1,0,0.2,0.1,0.2,0.2
      		C16.1,11.5,16,11.6,15.9,11.6z M15.9,11.2c-0.1,0-0.2,0.1-0.2,0.2c0,0.1,0.1,0.2,0.2,0.2c0.1,0,0.2-0.1,0.2-0.2
      		C16.1,11.2,16,11.2,15.9,11.2z"/>
            </g>
            <g>
                <path fill="#C03A2B" d="M15.4,11.3c0,0.1-0.1,0.2-0.2,0.2c-0.1,0-0.2-0.1-0.2-0.2c0-0.1,0.1-0.2,0.2-0.2
      		C15.3,11.1,15.4,11.2,15.4,11.3z"/>
                <path fill="#C03A2B" d="M15.2,11.6c-0.1,0-0.2-0.1-0.2-0.2c0-0.1,0.1-0.2,0.2-0.2c0.1,0,0.2,0.1,0.2,0.2
      		C15.5,11.5,15.4,11.6,15.2,11.6z M15.2,11.2c-0.1,0-0.2,0.1-0.2,0.2c0,0.1,0.1,0.2,0.2,0.2c0.1,0,0.2-0.1,0.2-0.2
      		C15.4,11.3,15.3,11.2,15.2,11.2z"/>
            </g>
            <g>
                <path fill="#C03A2B" d="M15.4,7.9c0,0.2-0.1,0.3-0.3,0.3c-0.2,0-0.3-0.1-0.3-0.3c0-0.2,0.1-0.3,0.3-0.3C15.3,7.6,15.4,7.7,15.4,7.9
      		z"/>
                <path fill="#C03A2B" d="M15.1,8.2c-0.2,0-0.3-0.2-0.3-0.3c0-0.2,0.2-0.3,0.3-0.3c0.2,0,0.3,0.2,0.3,0.3C15.5,8.1,15.3,8.2,15.1,8.2
      		z M15.1,7.6c-0.1,0-0.3,0.1-0.3,0.3c0,0.1,0.1,0.3,0.3,0.3c0.1,0,0.3-0.1,0.3-0.3C15.4,7.8,15.2,7.6,15.1,7.6z"/>
            </g>
            <g>
                <path fill="#C03A2B" d="M14.8,10.4c0,0.1-0.1,0.2-0.2,0.2c-0.1,0-0.2-0.1-0.2-0.2c0-0.1,0.1-0.2,0.2-0.2
      		C14.7,10.2,14.8,10.3,14.8,10.4z"/>
                <path fill="#C03A2B" d="M14.5,10.7c-0.1,0-0.3-0.1-0.3-0.3c0-0.1,0.1-0.3,0.3-0.3c0.1,0,0.3,0.1,0.3,0.3
      		C14.8,10.5,14.7,10.7,14.5,10.7z M14.5,10.2c-0.1,0-0.2,0.1-0.2,0.2c0,0.1,0.1,0.2,0.2,0.2c0.1,0,0.2-0.1,0.2-0.2
      		C14.7,10.3,14.6,10.2,14.5,10.2z"/>
            </g>
            <g>
                <path fill="#C03A2B" d="M15.1,9.4c0,0.1-0.1,0.2-0.2,0.2c-0.1,0-0.2-0.1-0.2-0.2c0-0.1,0.1-0.2,0.2-0.2C15,9.2,15.1,9.3,15.1,9.4z"/>
                <path fill="#C03A2B" d="M14.9,9.7c-0.1,0-0.2-0.1-0.2-0.2c0-0.1,0.1-0.2,0.2-0.2c0.1,0,0.2,0.1,0.2,0.2C15.1,9.5,15,9.7,14.9,9.7z
      		 M14.9,9.2c-0.1,0-0.2,0.1-0.2,0.2c0,0.1,0.1,0.2,0.2,0.2C15,9.6,15,9.5,15,9.4C15,9.3,15,9.2,14.9,9.2z"/>
            </g>
            <g>
                <path fill="#C03A2B" d="M16.6,7.5c0,0.2-0.2,0.3-0.3,0.3c-0.2,0-0.3-0.2-0.3-0.3c0-0.2,0.2-0.3,0.3-0.3C16.4,7.1,16.6,7.3,16.6,7.5
      		z"/>
                <path fill="#C03A2B" d="M16.2,7.9c-0.2,0-0.4-0.2-0.4-0.4c0-0.2,0.2-0.4,0.4-0.4c0.2,0,0.4,0.2,0.4,0.4C16.6,7.7,16.4,7.9,16.2,7.9
      		z M16.2,7.2c-0.2,0-0.3,0.1-0.3,0.3c0,0.2,0.1,0.3,0.3,0.3c0.2,0,0.3-0.1,0.3-0.3C16.5,7.3,16.4,7.2,16.2,7.2z"/>
            </g>
            <g>
                <path fill="#C03A2B" d="M15.3,5.5c0,0.2-0.2,0.3-0.3,0.3c-0.2,0-0.3-0.2-0.3-0.3c0-0.2,0.2-0.3,0.3-0.3C15.2,5.2,15.3,5.3,15.3,5.5
      		z"/>
                <path fill="#C03A2B" d="M15,5.9c-0.2,0-0.4-0.2-0.4-0.4c0-0.2,0.2-0.4,0.4-0.4c0.2,0,0.4,0.2,0.4,0.4C15.4,5.7,15.2,5.9,15,5.9z
      		 M15,5.2c-0.2,0-0.3,0.1-0.3,0.3c0,0.2,0.1,0.3,0.3,0.3c0.2,0,0.3-0.1,0.3-0.3C15.3,5.4,15.1,5.2,15,5.2z"/>
            </g>
            <g>
                <path fill="#C03A2B" d="M16,8.8C16,9,15.9,9,15.8,9c-0.1,0-0.2-0.1-0.2-0.2c0-0.1,0.1-0.2,0.2-0.2C15.9,8.6,16,8.7,16,8.8z"/>
                <path fill="#C03A2B" d="M15.8,9.1c-0.1,0-0.2-0.1-0.2-0.2c0-0.1,0.1-0.2,0.2-0.2c0.1,0,0.2,0.1,0.2,0.2C16,9,15.9,9.1,15.8,9.1z
      		 M15.8,8.7c-0.1,0-0.2,0.1-0.2,0.2c0,0.1,0.1,0.2,0.2,0.2c0.1,0,0.2-0.1,0.2-0.2C15.9,8.7,15.9,8.7,15.8,8.7z"/>
            </g>
            <path fill="#E64C3C" d="M63.9,11h2.9v8h-2.9V11z"/>
            <g>
                <path fill="#E64C3C" d="M64.2,10.6c0,0.1-0.1,0.2-0.2,0.2c-0.1,0-0.2-0.1-0.2-0.2c0-0.1,0.1-0.2,0.2-0.2
      		C64.1,10.5,64.2,10.5,64.2,10.6z"/>
                <path fill="#E64C3C" d="M64,10.9c-0.1,0-0.2-0.1-0.2-0.2c0-0.1,0.1-0.2,0.2-0.2c0.1,0,0.2,0.1,0.2,0.2C64.2,10.8,64.1,10.9,64,10.9
      		z M64,10.5c-0.1,0-0.2,0.1-0.2,0.2c0,0.1,0.1,0.2,0.2,0.2c0.1,0,0.2-0.1,0.2-0.2C64.2,10.6,64.1,10.5,64,10.5z"/>
            </g>
            <g>
                <path fill="#E64C3C" d="M65.8,10.3c0,0.4-0.4,0.8-0.8,0.8c-0.4,0-0.8-0.4-0.8-0.8c0-0.4,0.4-0.8,0.8-0.8
      		C65.4,9.5,65.8,9.9,65.8,10.3z"/>
                <path fill="#E64C3C" d="M65,11.3c-0.5,0-0.9-0.4-0.9-0.9c0-0.5,0.4-0.9,0.9-0.9c0.5,0,0.9,0.4,0.9,0.9C65.9,10.8,65.5,11.3,65,11.3
      		z M65,9.7c-0.4,0-0.7,0.3-0.7,0.7c0,0.4,0.3,0.7,0.7,0.7c0.4,0,0.7-0.3,0.7-0.7C65.7,10,65.4,9.7,65,9.7z"/>
            </g>
            <g>
                <path fill="#E64C3C" d="M66.8,9.1c0,0.1-0.1,0.3-0.3,0.3c-0.1,0-0.3-0.1-0.3-0.3c0-0.1,0.1-0.3,0.3-0.3C66.7,8.8,66.8,8.9,66.8,9.1
      		z"/>
                <path fill="#E64C3C" d="M66.6,9.4c-0.2,0-0.3-0.1-0.3-0.3c0-0.2,0.1-0.3,0.3-0.3c0.2,0,0.3,0.1,0.3,0.3C66.9,9.2,66.7,9.4,66.6,9.4
      		z M66.6,8.9c-0.1,0-0.2,0.1-0.2,0.2c0,0.1,0.1,0.2,0.2,0.2c0.1,0,0.2-0.1,0.2-0.2C66.8,9,66.7,8.9,66.6,8.9z"/>
            </g>
            <g>
                <path fill="#E64C3C" d="M64.4,11.1c0,0.1-0.1,0.2-0.2,0.2c-0.1,0-0.2-0.1-0.2-0.2c0-0.1,0.1-0.2,0.2-0.2
      		C64.2,10.8,64.4,10.9,64.4,11.1z"/>
                <path fill="#E64C3C" d="M64.1,11.3c-0.1,0-0.3-0.1-0.3-0.3c0-0.1,0.1-0.3,0.3-0.3c0.1,0,0.3,0.1,0.3,0.3
      		C64.4,11.2,64.3,11.3,64.1,11.3z M64.1,10.9c-0.1,0-0.2,0.1-0.2,0.2c0,0.1,0.1,0.2,0.2,0.2c0.1,0,0.2-0.1,0.2-0.2
      		C64.3,11,64.2,10.9,64.1,10.9z"/>
            </g>
            <g>
                <path fill="#E64C3C" d="M66.6,10.8c0,0.2-0.2,0.4-0.4,0.4c-0.2,0-0.4-0.2-0.4-0.4c0-0.2,0.2-0.4,0.4-0.4
      		C66.5,10.4,66.6,10.6,66.6,10.8z"/>
                <path fill="#E64C3C" d="M66.2,11.3c-0.3,0-0.5-0.2-0.5-0.5c0-0.3,0.2-0.5,0.5-0.5c0.3,0,0.5,0.2,0.5,0.5
      		C66.7,11.1,66.5,11.3,66.2,11.3z M66.2,10.5c-0.2,0-0.4,0.2-0.4,0.4c0,0.2,0.2,0.4,0.4,0.4c0.2,0,0.4-0.2,0.4-0.4
      		C66.6,10.6,66.4,10.5,66.2,10.5z"/>
            </g>
            <g>
                <path fill="#E64C3C" d="M66.7,9.9c0,0.3-0.2,0.5-0.5,0.5c-0.3,0-0.5-0.2-0.5-0.5c0-0.3,0.2-0.5,0.5-0.5C66.4,9.4,66.7,9.6,66.7,9.9
      		z"/>
                <path fill="#E64C3C" d="M66.1,10.5c-0.3,0-0.6-0.3-0.6-0.6c0-0.3,0.3-0.6,0.6-0.6c0.3,0,0.6,0.3,0.6,0.6
      		C66.8,10.2,66.5,10.5,66.1,10.5z M66.1,9.5c-0.2,0-0.4,0.2-0.4,0.4c0,0.2,0.2,0.4,0.4,0.4c0.2,0,0.4-0.2,0.4-0.4
      		C66.6,9.7,66.4,9.5,66.1,9.5z"/>
            </g>
            <g>
                <path fill="#E64C3C" d="M66.1,8.8c0,0.3-0.2,0.5-0.5,0.5c-0.3,0-0.5-0.2-0.5-0.5c0-0.3,0.2-0.5,0.5-0.5C65.8,8.3,66.1,8.5,66.1,8.8
      		z"/>
                <path fill="#E64C3C" d="M65.5,9.4c-0.3,0-0.6-0.3-0.6-0.6c0-0.3,0.3-0.6,0.6-0.6c0.3,0,0.6,0.3,0.6,0.6C66.1,9.1,65.9,9.4,65.5,9.4
      		z M65.5,8.3c-0.2,0-0.4,0.2-0.4,0.4c0,0.2,0.2,0.4,0.4,0.4C65.8,9.2,66,9,66,8.8C66,8.5,65.8,8.3,65.5,8.3z"/>
            </g>
            <g>
                <path fill="#E64C3C" d="M64.4,10.1c0,0.1-0.1,0.3-0.3,0.3c-0.1,0-0.3-0.1-0.3-0.3c0-0.1,0.1-0.3,0.3-0.3
      		C64.3,9.9,64.4,10,64.4,10.1z"/>
                <path fill="#E64C3C" d="M64.1,10.4c-0.2,0-0.3-0.1-0.3-0.3c0-0.2,0.1-0.3,0.3-0.3c0.2,0,0.3,0.1,0.3,0.3
      		C64.4,10.3,64.3,10.4,64.1,10.4z M64.1,9.9c-0.1,0-0.2,0.1-0.2,0.2c0,0.1,0.1,0.2,0.2,0.2c0.1,0,0.2-0.1,0.2-0.2
      		C64.3,10,64.2,9.9,64.1,9.9z"/>
            </g>
            <g>
                <path fill="#E64C3C" d="M64.4,9.6c0,0.1-0.1,0.2-0.2,0.2c-0.1,0-0.2-0.1-0.2-0.2c0-0.1,0.1-0.2,0.2-0.2C64.2,9.3,64.4,9.5,64.4,9.6
      		z"/>
                <path fill="#E64C3C" d="M64.1,9.9c-0.1,0-0.3-0.1-0.3-0.3c0-0.1,0.1-0.3,0.3-0.3c0.1,0,0.3,0.1,0.3,0.3C64.4,9.7,64.3,9.9,64.1,9.9
      		z M64.1,9.4c-0.1,0-0.2,0.1-0.2,0.2c0,0.1,0.1,0.2,0.2,0.2c0.1,0,0.2-0.1,0.2-0.2C64.3,9.5,64.2,9.4,64.1,9.4z"/>
            </g>
            <g>
                <path fill="#E64C3C" d="M65.2,9.2c0,0.2-0.1,0.3-0.3,0.3c-0.2,0-0.3-0.1-0.3-0.3c0-0.2,0.1-0.3,0.3-0.3C65,8.9,65.2,9.1,65.2,9.2z"/>
                <path fill="#E64C3C" d="M64.8,9.6c-0.2,0-0.4-0.2-0.4-0.4c0-0.2,0.2-0.4,0.4-0.4c0.2,0,0.4,0.2,0.4,0.4C65.2,9.5,65.1,9.6,64.8,9.6
      		z M64.8,9c-0.2,0-0.3,0.1-0.3,0.3c0,0.2,0.1,0.3,0.3,0.3c0.2,0,0.3-0.1,0.3-0.3C65.1,9.1,65,9,64.8,9z"/>
            </g>
            <g>
                <path fill="#E64C3C" d="M64.8,8.7C64.8,8.8,64.8,8.8,64.8,8.7c-0.1,0.1-0.2,0-0.2,0C64.7,8.7,64.7,8.7,64.8,8.7
      		C64.8,8.7,64.8,8.7,64.8,8.7z"/>
                <path fill="#E64C3C" d="M64.7,8.8C64.7,8.8,64.7,8.8,64.7,8.8c-0.1-0.1,0-0.2,0-0.2C64.8,8.6,64.8,8.7,64.7,8.8
      		C64.8,8.8,64.8,8.8,64.7,8.8z M64.7,8.7C64.7,8.7,64.7,8.7,64.7,8.7c-0.1,0.1,0,0.1,0,0.1C64.8,8.8,64.8,8.8,64.7,8.7
      		C64.8,8.7,64.8,8.7,64.7,8.7z"/>
            </g>
            <g>
                <path fill="#E64C3C" d="M65,8.3C65,8.4,65,8.4,65,8.3c-0.1,0.1-0.2,0-0.2,0C64.8,8.3,64.9,8.2,65,8.3C65,8.2,65,8.3,65,8.3z"/>
                <path fill="#E64C3C" d="M64.9,8.4C64.9,8.4,64.8,8.4,64.9,8.4c-0.1-0.1,0-0.2,0-0.2S65,8.3,64.9,8.4C65,8.4,65,8.4,64.9,8.4z
      		 M64.9,8.3C64.9,8.3,64.9,8.3,64.9,8.3c-0.1,0.1,0,0.1,0,0.1C65,8.4,65,8.4,64.9,8.3C65,8.3,65,8.3,64.9,8.3z"/>
            </g>
            <g>
                <path fill="#E64C3C" d="M66.5,8.6c0,0.1-0.1,0.1-0.1,0.1c-0.1,0-0.1-0.1-0.1-0.1c0-0.1,0.1-0.1,0.1-0.1C66.4,8.4,66.5,8.5,66.5,8.6
      		z"/>
                <path fill="#E64C3C" d="M66.4,8.7c-0.1,0-0.2-0.1-0.2-0.2c0-0.1,0.1-0.2,0.2-0.2c0.1,0,0.2,0.1,0.2,0.2C66.5,8.7,66.5,8.7,66.4,8.7
      		z M66.4,8.4c-0.1,0-0.1,0.1-0.1,0.1c0,0.1,0.1,0.1,0.1,0.1c0.1,0,0.1-0.1,0.1-0.1C66.5,8.5,66.4,8.4,66.4,8.4z"/>
            </g>
            <g>
                <path fill="#E64C3C" d="M65.1,7.9c0,0.2-0.1,0.3-0.3,0.3c-0.2,0-0.3-0.1-0.3-0.3c0-0.2,0.1-0.3,0.3-0.3C65,7.6,65.1,7.8,65.1,7.9z"/>
                <path fill="#E64C3C" d="M64.8,8.3c-0.2,0-0.4-0.2-0.4-0.4c0-0.2,0.2-0.4,0.4-0.4c0.2,0,0.4,0.2,0.4,0.4C65.2,8.2,65,8.3,64.8,8.3z
      		 M64.8,7.7c-0.2,0-0.3,0.1-0.3,0.3c0,0.2,0.1,0.3,0.3,0.3c0.2,0,0.3-0.1,0.3-0.3C65.1,7.8,65,7.7,64.8,7.7z"/>
            </g>
            <g>
                <path fill="#E64C3C" d="M65.6,8c0,0.1-0.1,0.3-0.3,0.3S65.1,8.1,65.1,8c0-0.1,0.1-0.3,0.3-0.3S65.6,7.8,65.6,8z"/>
                <path fill="#E64C3C" d="M65.4,8.3c-0.2,0-0.3-0.1-0.3-0.3c0-0.2,0.1-0.3,0.3-0.3c0.2,0,0.3,0.1,0.3,0.3C65.7,8.1,65.5,8.3,65.4,8.3
      		z M65.4,7.8c-0.1,0-0.2,0.1-0.2,0.2c0,0.1,0.1,0.2,0.2,0.2c0.1,0,0.2-0.1,0.2-0.2C65.6,7.8,65.5,7.8,65.4,7.8z"/>
            </g>
            <g>
                <path fill="#E64C3C" d="M66.5,8.2c0,0.1-0.1,0.2-0.2,0.2c-0.1,0-0.2-0.1-0.2-0.2c0-0.1,0.1-0.2,0.2-0.2C66.4,8,66.5,8.1,66.5,8.2z"/>
                <path fill="#E64C3C" d="M66.3,8.4c-0.1,0-0.2-0.1-0.2-0.2c0-0.1,0.1-0.2,0.2-0.2c0.1,0,0.2,0.1,0.2,0.2C66.5,8.3,66.4,8.4,66.3,8.4
      		z M66.3,8c-0.1,0-0.2,0.1-0.2,0.2c0,0.1,0.1,0.2,0.2,0.2c0.1,0,0.2-0.1,0.2-0.2C66.5,8.1,66.4,8,66.3,8z"/>
            </g>
            <g>
                <path fill="#E64C3C" d="M64.6,8.4c0,0.1-0.1,0.2-0.2,0.2s-0.2-0.1-0.2-0.2c0-0.1,0.1-0.2,0.2-0.2S64.6,8.3,64.6,8.4z"/>
                <path fill="#E64C3C" d="M64.5,8.6c-0.1,0-0.2-0.1-0.2-0.2c0-0.1,0.1-0.2,0.2-0.2c0.1,0,0.2,0.1,0.2,0.2C64.7,8.5,64.6,8.6,64.5,8.6
      		z M64.5,8.2c-0.1,0-0.2,0.1-0.2,0.2c0,0.1,0.1,0.2,0.2,0.2c0.1,0,0.2-0.1,0.2-0.2C64.6,8.3,64.5,8.2,64.5,8.2z"/>
            </g>
            <g>
                <path fill="#E64C3C" d="M64.6,9.1c0,0.2-0.2,0.4-0.4,0.4c-0.2,0-0.4-0.2-0.4-0.4c0-0.2,0.2-0.4,0.4-0.4C64.4,8.7,64.6,8.9,64.6,9.1
      		z"/>
                <path fill="#E64C3C" d="M64.2,9.5c-0.2,0-0.4-0.2-0.4-0.4c0-0.2,0.2-0.4,0.4-0.4c0.2,0,0.4,0.2,0.4,0.4C64.7,9.3,64.5,9.5,64.2,9.5
      		z M64.2,8.8c-0.2,0-0.3,0.1-0.3,0.3c0,0.2,0.1,0.3,0.3,0.3c0.2,0,0.3-0.1,0.3-0.3C64.5,8.9,64.4,8.8,64.2,8.8z"/>
            </g>
            <g>
                <path fill="#E64C3C" d="M66.7,7.4c0,0.2-0.1,0.3-0.3,0.3c-0.2,0-0.3-0.1-0.3-0.3c0-0.2,0.1-0.3,0.3-0.3C66.5,7.1,66.7,7.2,66.7,7.4
      		z"/>
                <path fill="#E64C3C" d="M66.3,7.8c-0.2,0-0.4-0.2-0.4-0.4c0-0.2,0.2-0.4,0.4-0.4c0.2,0,0.4,0.2,0.4,0.4C66.7,7.6,66.5,7.8,66.3,7.8
      		z M66.3,7.1c-0.2,0-0.3,0.1-0.3,0.3c0,0.2,0.1,0.3,0.3,0.3c0.2,0,0.3-0.1,0.3-0.3C66.6,7.2,66.5,7.1,66.3,7.1z"/>
            </g>
            <g>
                <path fill="#E64C3C" d="M66.5,9.1c0,0.2-0.2,0.3-0.3,0.3c-0.2,0-0.3-0.2-0.3-0.3c0-0.2,0.2-0.3,0.3-0.3C66.4,8.7,66.5,8.9,66.5,9.1
      		z"/>
                <path fill="#E64C3C" d="M66.2,9.5c-0.2,0-0.4-0.2-0.4-0.4c0-0.2,0.2-0.4,0.4-0.4c0.2,0,0.4,0.2,0.4,0.4C66.6,9.3,66.4,9.5,66.2,9.5
      		z M66.2,8.8c-0.2,0-0.3,0.1-0.3,0.3c0,0.2,0.1,0.3,0.3,0.3c0.2,0,0.3-0.1,0.3-0.3C66.5,8.9,66.4,8.8,66.2,8.8z"/>
            </g>
            <g>
                <path fill="#E64C3C" d="M64.7,7.4c0,0.2-0.2,0.3-0.3,0.3c-0.2,0-0.3-0.2-0.3-0.3c0-0.2,0.2-0.3,0.3-0.3C64.6,7.1,64.7,7.2,64.7,7.4
      		z"/>
                <path fill="#E64C3C" d="M64.4,7.8c-0.2,0-0.4-0.2-0.4-0.4C64,7.2,64.2,7,64.4,7c0.2,0,0.4,0.2,0.4,0.4C64.8,7.6,64.6,7.8,64.4,7.8z
      		 M64.4,7.1c-0.2,0-0.3,0.1-0.3,0.3c0,0.2,0.1,0.3,0.3,0.3c0.2,0,0.3-0.1,0.3-0.3C64.7,7.2,64.6,7.1,64.4,7.1z"/>
            </g>
            <g>
                <path fill="#E64C3C" d="M65.8,6.6c0,0.2-0.2,0.3-0.3,0.3c-0.2,0-0.3-0.2-0.3-0.3c0-0.2,0.2-0.3,0.3-0.3C65.7,6.3,65.8,6.4,65.8,6.6
      		z"/>
                <path fill="#E64C3C" d="M65.5,7c-0.2,0-0.4-0.2-0.4-0.4c0-0.2,0.2-0.4,0.4-0.4c0.2,0,0.4,0.2,0.4,0.4C65.9,6.8,65.7,7,65.5,7z
      		 M65.5,6.3c-0.2,0-0.3,0.1-0.3,0.3c0,0.2,0.1,0.3,0.3,0.3c0.2,0,0.3-0.1,0.3-0.3C65.8,6.4,65.6,6.3,65.5,6.3z"/>
            </g>
            <g>
                <path fill="#E64C3C" d="M66.1,7.9c0,0.1-0.1,0.2-0.2,0.2c-0.1,0-0.2-0.1-0.2-0.2c0-0.1,0.1-0.2,0.2-0.2C66,7.8,66.1,7.8,66.1,7.9z"/>
                <path fill="#E64C3C" d="M65.9,8.1c-0.1,0-0.2-0.1-0.2-0.2c0-0.1,0.1-0.2,0.2-0.2c0.1,0,0.2,0.1,0.2,0.2C66.1,8,66,8.1,65.9,8.1z
      		 M65.9,7.8c-0.1,0-0.1,0.1-0.1,0.1c0,0.1,0.1,0.1,0.1,0.1c0.1,0,0.1-0.1,0.1-0.1C66.1,7.9,66,7.8,65.9,7.8z"/>
            </g>
            <g>
                <path fill="#E64C3C" d="M65.9,7.4c0,0.1-0.1,0.2-0.2,0.2c-0.1,0-0.2-0.1-0.2-0.2c0-0.1,0.1-0.2,0.2-0.2C65.8,7.2,65.9,7.3,65.9,7.4
      		z"/>
                <path fill="#E64C3C" d="M65.7,7.7c-0.1,0-0.2-0.1-0.2-0.2c0-0.1,0.1-0.2,0.2-0.2c0.1,0,0.2,0.1,0.2,0.2C65.9,7.5,65.8,7.7,65.7,7.7
      		z M65.7,7.2c-0.1,0-0.2,0.1-0.2,0.2c0,0.1,0.1,0.2,0.2,0.2c0.1,0,0.2-0.1,0.2-0.2C65.9,7.3,65.8,7.2,65.7,7.2z"/>
            </g>
            <g>
                <path fill="#E64C3C" d="M65.3,7.4c0,0.1-0.1,0.2-0.2,0.2c-0.1,0-0.2-0.1-0.2-0.2c0-0.1,0.1-0.2,0.2-0.2C65.2,7.2,65.3,7.3,65.3,7.4
      		z"/>
                <path fill="#E64C3C" d="M65.1,7.6c-0.1,0-0.2-0.1-0.2-0.2c0-0.1,0.1-0.2,0.2-0.2c0.1,0,0.2,0.1,0.2,0.2C65.3,7.5,65.2,7.6,65.1,7.6
      		z M65.1,7.2c-0.1,0-0.2,0.1-0.2,0.2c0,0.1,0.1,0.2,0.2,0.2c0.1,0,0.2-0.1,0.2-0.2C65.2,7.3,65.2,7.2,65.1,7.2z"/>
            </g>
            <g>
                <path fill="#E64C3C" d="M64.6,6.5c0,0.1-0.1,0.2-0.2,0.2s-0.2-0.1-0.2-0.2c0-0.1,0.1-0.2,0.2-0.2S64.6,6.3,64.6,6.5z"/>
                <path fill="#E64C3C" d="M64.4,6.7c-0.1,0-0.3-0.1-0.3-0.3c0-0.1,0.1-0.3,0.3-0.3c0.1,0,0.3,0.1,0.3,0.3C64.6,6.6,64.5,6.7,64.4,6.7
      		z M64.4,6.3c-0.1,0-0.2,0.1-0.2,0.2c0,0.1,0.1,0.2,0.2,0.2c0.1,0,0.2-0.1,0.2-0.2C64.6,6.4,64.5,6.3,64.4,6.3z"/>
            </g>
            <g>
                <path fill="#E64C3C" d="M64.9,5.5c0,0.1-0.1,0.2-0.2,0.2s-0.2-0.1-0.2-0.2c0-0.1,0.1-0.2,0.2-0.2S64.9,5.4,64.9,5.5z"/>
                <path fill="#E64C3C" d="M64.7,5.7c-0.1,0-0.2-0.1-0.2-0.2c0-0.1,0.1-0.2,0.2-0.2c0.1,0,0.2,0.1,0.2,0.2C64.9,5.6,64.8,5.7,64.7,5.7
      		z M64.7,5.3c-0.1,0-0.2,0.1-0.2,0.2c0,0.1,0.1,0.2,0.2,0.2c0.1,0,0.2-0.1,0.2-0.2C64.9,5.4,64.8,5.3,64.7,5.3z"/>
            </g>
            <g>
                <path fill="#E64C3C" d="M66.2,2.2c0,0.2-0.2,0.3-0.3,0.3c-0.2,0-0.3-0.2-0.3-0.3c0-0.2,0.2-0.3,0.3-0.3C66,1.8,66.2,2,66.2,2.2z"/>
                <path fill="#E64C3C" d="M65.8,2.6c-0.2,0-0.4-0.2-0.4-0.4c0-0.2,0.2-0.4,0.4-0.4c0.2,0,0.4,0.2,0.4,0.4C66.2,2.4,66,2.6,65.8,2.6z
      		 M65.8,1.9c-0.2,0-0.3,0.1-0.3,0.3c0,0.2,0.1,0.3,0.3,0.3c0.2,0,0.3-0.1,0.3-0.3C66.1,2,66,1.9,65.8,1.9z"/>
            </g>
            <g>
                <path fill="#E64C3C" d="M65.4,0.4c0,0.2-0.2,0.3-0.3,0.3c-0.2,0-0.3-0.2-0.3-0.3c0-0.2,0.2-0.3,0.3-0.3C65.2,0.1,65.4,0.2,65.4,0.4
      		z"/>
                <path fill="#E64C3C" d="M65,0.8c-0.2,0-0.4-0.2-0.4-0.4C64.6,0.2,64.8,0,65,0c0.2,0,0.4,0.2,0.4,0.4C65.4,0.6,65.2,0.8,65,0.8z
      		 M65,0.1c-0.2,0-0.3,0.1-0.3,0.3c0,0.2,0.1,0.3,0.3,0.3c0.2,0,0.3-0.1,0.3-0.3C65.3,0.2,65.2,0.1,65,0.1z"/>
            </g>
            <g>
                <path fill="#E64C3C" d="M65.8,4.9c0,0.1-0.1,0.2-0.2,0.2S65.4,5,65.4,4.9c0-0.1,0.1-0.2,0.2-0.2S65.8,4.8,65.8,4.9z"/>
                <path fill="#E64C3C" d="M65.6,5.1c-0.1,0-0.2-0.1-0.2-0.2c0-0.1,0.1-0.2,0.2-0.2c0.1,0,0.2,0.1,0.2,0.2C65.8,5,65.7,5.1,65.6,5.1z
      		 M65.6,4.7c-0.1,0-0.2,0.1-0.2,0.2c0,0.1,0.1,0.2,0.2,0.2c0.1,0,0.2-0.1,0.2-0.2C65.8,4.8,65.7,4.7,65.6,4.7z"/>
            </g>
            <path fill="#E66558" d="M103.9,13.1h2.9v5.8h-2.9V13.1z"/>
            <g>
                <path fill="#E66558" d="M104.2,13.5c0,0.1-0.1,0.2-0.2,0.2s-0.2-0.1-0.2-0.2c0-0.1,0.1-0.2,0.2-0.2S104.2,13.4,104.2,13.5z"/>
                <path fill="#E66558" d="M104.1,13.7c-0.1,0-0.2-0.1-0.2-0.2c0-0.1,0.1-0.2,0.2-0.2s0.2,0.1,0.2,0.2
      		C104.3,13.6,104.2,13.7,104.1,13.7z M104.1,13.4c-0.1,0-0.2,0.1-0.2,0.2c0,0.1,0.1,0.2,0.2,0.2c0.1,0,0.2-0.1,0.2-0.2
      		C104.2,13.4,104.1,13.4,104.1,13.4z"/>
            </g>
            <g>
                <path fill="#E66558" d="M105.8,13.2c0,0.4-0.4,0.8-0.8,0.8c-0.4,0-0.8-0.4-0.8-0.8c0-0.4,0.4-0.8,0.8-0.8
      		C105.5,12.4,105.8,12.8,105.8,13.2z"/>
                <path fill="#E66558" d="M105,14.1c-0.5,0-0.9-0.4-0.9-0.9c0-0.5,0.4-0.9,0.9-0.9c0.5,0,0.9,0.4,0.9,0.9
      		C106,13.7,105.5,14.1,105,14.1z M105,12.5c-0.4,0-0.7,0.3-0.7,0.7c0,0.4,0.3,0.7,0.7,0.7c0.4,0,0.7-0.3,0.7-0.7
      		C105.7,12.8,105.4,12.5,105,12.5z"/>
            </g>
            <g>
                <path fill="#E66558" d="M106.9,12c0,0.1-0.1,0.3-0.3,0.3c-0.1,0-0.3-0.1-0.3-0.3c0-0.1,0.1-0.3,0.3-0.3
      		C106.8,11.7,106.9,11.8,106.9,12z"/>
                <path fill="#E66558" d="M106.6,12.3c-0.2,0-0.3-0.1-0.3-0.3c0-0.2,0.1-0.3,0.3-0.3c0.2,0,0.3,0.1,0.3,0.3
      		C106.9,12.1,106.8,12.3,106.6,12.3z M106.6,11.7c-0.1,0-0.2,0.1-0.2,0.2c0,0.1,0.1,0.2,0.2,0.2c0.1,0,0.2-0.1,0.2-0.2
      		C106.8,11.8,106.7,11.7,106.6,11.7z"/>
            </g>
            <g>
                <path fill="#E66558" d="M104.4,13.9c0,0.1-0.1,0.2-0.2,0.2c-0.1,0-0.2-0.1-0.2-0.2c0-0.1,0.1-0.2,0.2-0.2
      		C104.3,13.7,104.4,13.8,104.4,13.9z"/>
                <path fill="#E66558" d="M104.2,14.2c-0.1,0-0.3-0.1-0.3-0.3c0-0.1,0.1-0.3,0.3-0.3c0.1,0,0.3,0.1,0.3,0.3
      		C104.4,14.1,104.3,14.2,104.2,14.2z M104.2,13.7c-0.1,0-0.2,0.1-0.2,0.2c0,0.1,0.1,0.2,0.2,0.2c0.1,0,0.2-0.1,0.2-0.2
      		C104.4,13.8,104.3,13.7,104.2,13.7z"/>
            </g>
            <g>
                <path fill="#E66558" d="M106.7,13.7c0,0.2-0.2,0.4-0.4,0.4c-0.2,0-0.4-0.2-0.4-0.4c0-0.2,0.2-0.4,0.4-0.4
      		C106.5,13.3,106.7,13.5,106.7,13.7z"/>
                <path fill="#E66558" d="M106.3,14.2c-0.3,0-0.5-0.2-0.5-0.5c0-0.3,0.2-0.5,0.5-0.5c0.3,0,0.5,0.2,0.5,0.5
      		C106.8,14,106.5,14.2,106.3,14.2z M106.3,13.3c-0.2,0-0.4,0.2-0.4,0.4c0,0.2,0.2,0.4,0.4,0.4c0.2,0,0.4-0.2,0.4-0.4
      		C106.6,13.5,106.5,13.3,106.3,13.3z"/>
            </g>
            <g>
                <path fill="#E66558" d="M106.7,12.8c0,0.3-0.2,0.5-0.5,0.5c-0.3,0-0.5-0.2-0.5-0.5c0-0.3,0.2-0.5,0.5-0.5
      		C106.5,12.3,106.7,12.5,106.7,12.8z"/>
                <path fill="#E66558" d="M106.2,13.4c-0.3,0-0.6-0.3-0.6-0.6c0-0.3,0.3-0.6,0.6-0.6c0.3,0,0.6,0.3,0.6,0.6
      		C106.8,13.1,106.5,13.4,106.2,13.4z M106.2,12.3c-0.2,0-0.4,0.2-0.4,0.4c0,0.2,0.2,0.4,0.4,0.4c0.2,0,0.4-0.2,0.4-0.4
      		C106.6,12.5,106.4,12.3,106.2,12.3z"/>
            </g>
            <g>
                <path fill="#E66558" d="M106.1,11.7c0,0.3-0.2,0.5-0.5,0.5c-0.3,0-0.5-0.2-0.5-0.5c0-0.3,0.2-0.5,0.5-0.5
      		C105.9,11.1,106.1,11.4,106.1,11.7z"/>
                <path fill="#E66558" d="M105.6,12.3c-0.3,0-0.6-0.3-0.6-0.6c0-0.3,0.3-0.6,0.6-0.6c0.3,0,0.6,0.3,0.6,0.6
      		C106.2,12,105.9,12.3,105.6,12.3z M105.6,11.2c-0.2,0-0.4,0.2-0.4,0.4c0,0.2,0.2,0.4,0.4,0.4c0.2,0,0.4-0.2,0.4-0.4
      		C106,11.4,105.8,11.2,105.6,11.2z"/>
            </g>
            <g>
                <path fill="#E66558" d="M104.4,13c0,0.1-0.1,0.3-0.3,0.3c-0.1,0-0.3-0.1-0.3-0.3c0-0.1,0.1-0.3,0.3-0.3
      		C104.3,12.8,104.4,12.9,104.4,13z"/>
                <path fill="#E66558" d="M104.2,13.3c-0.2,0-0.3-0.1-0.3-0.3c0-0.2,0.1-0.3,0.3-0.3c0.2,0,0.3,0.1,0.3,0.3
      		C104.5,13.2,104.3,13.3,104.2,13.3z M104.2,12.8c-0.1,0-0.2,0.1-0.2,0.2c0,0.1,0.1,0.2,0.2,0.2c0.1,0,0.2-0.1,0.2-0.2
      		C104.4,12.9,104.3,12.8,104.2,12.8z"/>
            </g>
            <g>
                <path fill="#E66558" d="M104.4,12.5c0,0.1-0.1,0.2-0.2,0.2c-0.1,0-0.2-0.1-0.2-0.2c0-0.1,0.1-0.2,0.2-0.2
      		C104.3,12.2,104.4,12.3,104.4,12.5z"/>
                <path fill="#E66558" d="M104.2,12.7c-0.1,0-0.3-0.1-0.3-0.3c0-0.1,0.1-0.3,0.3-0.3c0.1,0,0.3,0.1,0.3,0.3
      		C104.4,12.6,104.3,12.7,104.2,12.7z M104.2,12.3c-0.1,0-0.2,0.1-0.2,0.2c0,0.1,0.1,0.2,0.2,0.2c0.1,0,0.2-0.1,0.2-0.2
      		C104.4,12.3,104.3,12.3,104.2,12.3z"/>
            </g>
            <g>
                <path fill="#E66558" d="M105.2,12.1c0,0.2-0.1,0.3-0.3,0.3c-0.2,0-0.3-0.1-0.3-0.3c0-0.2,0.1-0.3,0.3-0.3
      		C105.1,11.8,105.2,11.9,105.2,12.1z"/>
                <path fill="#E66558" d="M104.9,12.5c-0.2,0-0.4-0.2-0.4-0.4c0-0.2,0.2-0.4,0.4-0.4c0.2,0,0.4,0.2,0.4,0.4
      		C105.3,12.3,105.1,12.5,104.9,12.5z M104.9,11.8c-0.2,0-0.3,0.1-0.3,0.3c0,0.2,0.1,0.3,0.3,0.3c0.2,0,0.3-0.1,0.3-0.3
      		C105.2,12,105.1,11.8,104.9,11.8z"/>
            </g>
            <g>
                <path fill="#E66558" d="M104.9,11.6C104.9,11.7,104.8,11.7,104.9,11.6c-0.1,0.1-0.2,0-0.2,0C104.7,11.6,104.8,11.5,104.9,11.6
      		C104.8,11.5,104.9,11.6,104.9,11.6z"/>
                <path fill="#E66558" d="M104.8,11.7C104.8,11.7,104.7,11.7,104.8,11.7c-0.1-0.1,0-0.2,0-0.2C104.9,11.5,104.9,11.6,104.8,11.7
      		C104.9,11.7,104.9,11.7,104.8,11.7z M104.8,11.6C104.8,11.6,104.7,11.6,104.8,11.6c-0.1,0.1,0,0.1,0,0.1
      		C104.8,11.7,104.9,11.7,104.8,11.6C104.9,11.6,104.8,11.6,104.8,11.6z"/>
            </g>
            <g>
                <path fill="#E66558" d="M105.1,11.2C105.1,11.2,105,11.3,105.1,11.2c-0.1,0.1-0.2,0-0.2,0C104.9,11.2,104.9,11.1,105.1,11.2
      		C105,11.1,105.1,11.2,105.1,11.2z"/>
                <path fill="#E66558" d="M105,11.3C104.9,11.3,104.9,11.2,105,11.3c-0.1-0.1,0-0.2,0-0.2S105.1,11.2,105,11.3
      		C105.1,11.2,105,11.3,105,11.3z M105,11.1C104.9,11.1,104.9,11.2,105,11.1c-0.1,0.1,0,0.1,0,0.1C105,11.3,105,11.2,105,11.1
      		C105,11.2,105,11.1,105,11.1z"/>
            </g>
            <g>
                <path fill="#E66558" d="M106.6,11.4c0,0.1-0.1,0.1-0.1,0.1c-0.1,0-0.1-0.1-0.1-0.1c0-0.1,0.1-0.1,0.1-0.1
      		C106.5,11.3,106.6,11.4,106.6,11.4z"/>
                <path fill="#E66558" d="M106.4,11.6c-0.1,0-0.2-0.1-0.2-0.2c0-0.1,0.1-0.2,0.2-0.2c0.1,0,0.2,0.1,0.2,0.2
      		C106.6,11.5,106.5,11.6,106.4,11.6z M106.4,11.3c-0.1,0-0.1,0.1-0.1,0.1c0,0.1,0.1,0.1,0.1,0.1c0.1,0,0.1-0.1,0.1-0.1
      		C106.5,11.4,106.5,11.3,106.4,11.3z"/>
            </g>
            <g>
                <path fill="#E66558" d="M105.2,10.8c0,0.2-0.1,0.3-0.3,0.3c-0.2,0-0.3-0.1-0.3-0.3c0-0.2,0.1-0.3,0.3-0.3
      		C105.1,10.5,105.2,10.6,105.2,10.8z"/>
                <path fill="#E66558" d="M104.9,11.2c-0.2,0-0.4-0.2-0.4-0.4c0-0.2,0.2-0.4,0.4-0.4c0.2,0,0.4,0.2,0.4,0.4
      		C105.3,11,105.1,11.2,104.9,11.2z M104.9,10.5c-0.2,0-0.3,0.1-0.3,0.3c0,0.2,0.1,0.3,0.3,0.3c0.2,0,0.3-0.1,0.3-0.3
      		C105.1,10.7,105,10.5,104.9,10.5z"/>
            </g>
            <g>
                <path fill="#E66558" d="M105.7,10.8c0,0.1-0.1,0.3-0.3,0.3s-0.3-0.1-0.3-0.3c0-0.1,0.1-0.3,0.3-0.3S105.7,10.7,105.7,10.8z"/>
                <path fill="#E66558" d="M105.4,11.1c-0.2,0-0.3-0.1-0.3-0.3c0-0.2,0.1-0.3,0.3-0.3c0.2,0,0.3,0.1,0.3,0.3
      		C105.7,11,105.6,11.1,105.4,11.1z M105.4,10.6c-0.1,0-0.2,0.1-0.2,0.2c0,0.1,0.1,0.2,0.2,0.2c0.1,0,0.2-0.1,0.2-0.2
      		C105.6,10.7,105.5,10.6,105.4,10.6z"/>
            </g>
            <g>
                <path fill="#E66558" d="M106.6,11.1c0,0.1-0.1,0.2-0.2,0.2c-0.1,0-0.2-0.1-0.2-0.2c0-0.1,0.1-0.2,0.2-0.2
      		C106.5,10.9,106.6,11,106.6,11.1z"/>
                <path fill="#E66558" d="M106.4,11.3c-0.1,0-0.2-0.1-0.2-0.2c0-0.1,0.1-0.2,0.2-0.2c0.1,0,0.2,0.1,0.2,0.2
      		C106.6,11.2,106.5,11.3,106.4,11.3z M106.4,10.9c-0.1,0-0.2,0.1-0.2,0.2c0,0.1,0.1,0.2,0.2,0.2c0.1,0,0.2-0.1,0.2-0.2
      		C106.5,11,106.5,10.9,106.4,10.9z"/>
            </g>
            <g>
                <path fill="#E66558" d="M104.7,11.3c0,0.1-0.1,0.2-0.2,0.2s-0.2-0.1-0.2-0.2c0-0.1,0.1-0.2,0.2-0.2S104.7,11.2,104.7,11.3z"/>
                <path fill="#E66558" d="M104.5,11.5c-0.1,0-0.2-0.1-0.2-0.2c0-0.1,0.1-0.2,0.2-0.2c0.1,0,0.2,0.1,0.2,0.2
      		C104.7,11.4,104.6,11.5,104.5,11.5z M104.5,11.1c-0.1,0-0.2,0.1-0.2,0.2c0,0.1,0.1,0.2,0.2,0.2c0.1,0,0.2-0.1,0.2-0.2
      		C104.7,11.2,104.6,11.1,104.5,11.1z"/>
            </g>
            <g>
                <path fill="#E66558" d="M104.7,12c0,0.2-0.2,0.4-0.4,0.4c-0.2,0-0.4-0.2-0.4-0.4c0-0.2,0.2-0.4,0.4-0.4
      		C104.5,11.6,104.7,11.8,104.7,12z"/>
                <path fill="#E66558" d="M104.3,12.4c-0.2,0-0.4-0.2-0.4-0.4c0-0.2,0.2-0.4,0.4-0.4c0.2,0,0.4,0.2,0.4,0.4
      		C104.7,12.2,104.5,12.4,104.3,12.4z M104.3,11.7c-0.2,0-0.3,0.1-0.3,0.3c0,0.2,0.1,0.3,0.3,0.3c0.2,0,0.3-0.1,0.3-0.3
      		C104.6,11.8,104.5,11.7,104.3,11.7z"/>
            </g>
            <g>
                <path fill="#E66558" d="M106.7,10.3c0,0.2-0.1,0.3-0.3,0.3c-0.2,0-0.3-0.1-0.3-0.3c0-0.2,0.1-0.3,0.3-0.3
      		C106.6,9.9,106.7,10.1,106.7,10.3z"/>
                <path fill="#E66558" d="M106.4,10.7c-0.2,0-0.4-0.2-0.4-0.4c0-0.2,0.2-0.4,0.4-0.4c0.2,0,0.4,0.2,0.4,0.4
      		C106.8,10.5,106.6,10.7,106.4,10.7z M106.4,10c-0.2,0-0.3,0.1-0.3,0.3c0,0.2,0.1,0.3,0.3,0.3c0.2,0,0.3-0.1,0.3-0.3
      		C106.7,10.1,106.5,10,106.4,10z"/>
            </g>
            <g>
                <path fill="#E66558" d="M106.6,11.9c0,0.2-0.2,0.3-0.3,0.3c-0.2,0-0.3-0.2-0.3-0.3c0-0.2,0.2-0.3,0.3-0.3
      		C106.4,11.6,106.6,11.7,106.6,11.9z"/>
                <path fill="#E66558" d="M106.2,12.3c-0.2,0-0.4-0.2-0.4-0.4c0-0.2,0.2-0.4,0.4-0.4c0.2,0,0.4,0.2,0.4,0.4
      		C106.7,12.2,106.5,12.3,106.2,12.3z M106.2,11.6c-0.2,0-0.3,0.1-0.3,0.3c0,0.2,0.1,0.3,0.3,0.3c0.2,0,0.3-0.1,0.3-0.3
      		C106.5,11.8,106.4,11.6,106.2,11.6z"/>
            </g>
            <g>
                <path fill="#E66558" d="M104.8,10.3c0,0.2-0.2,0.3-0.3,0.3c-0.2,0-0.3-0.2-0.3-0.3c0-0.2,0.2-0.3,0.3-0.3
      		C104.6,9.9,104.8,10.1,104.8,10.3z"/>
                <path fill="#E66558" d="M104.4,10.7c-0.2,0-0.4-0.2-0.4-0.4c0-0.2,0.2-0.4,0.4-0.4c0.2,0,0.4,0.2,0.4,0.4
      		C104.8,10.5,104.7,10.7,104.4,10.7z M104.4,10c-0.2,0-0.3,0.1-0.3,0.3c0,0.2,0.1,0.3,0.3,0.3c0.2,0,0.3-0.1,0.3-0.3
      		C104.7,10.1,104.6,10,104.4,10z"/>
            </g>
            <g>
                <path fill="#E66558" d="M105.9,9.5c0,0.2-0.2,0.3-0.3,0.3c-0.2,0-0.3-0.2-0.3-0.3c0-0.2,0.2-0.3,0.3-0.3
      		C105.7,9.1,105.9,9.3,105.9,9.5z"/>
                <path fill="#E66558" d="M105.5,9.9c-0.2,0-0.4-0.2-0.4-0.4c0-0.2,0.2-0.4,0.4-0.4c0.2,0,0.4,0.2,0.4,0.4
      		C105.9,9.7,105.8,9.9,105.5,9.9z M105.5,9.2c-0.2,0-0.3,0.1-0.3,0.3c0,0.2,0.1,0.3,0.3,0.3c0.2,0,0.3-0.1,0.3-0.3
      		C105.8,9.3,105.7,9.2,105.5,9.2z"/>
            </g>
            <g>
                <path fill="#E66558" d="M106.2,10.8c0,0.1-0.1,0.2-0.2,0.2c-0.1,0-0.2-0.1-0.2-0.2c0-0.1,0.1-0.2,0.2-0.2
      		C106.1,10.6,106.2,10.7,106.2,10.8z"/>
                <path fill="#E66558" d="M106,11c-0.1,0-0.2-0.1-0.2-0.2c0-0.1,0.1-0.2,0.2-0.2c0.1,0,0.2,0.1,0.2,0.2C106.2,10.9,106.1,11,106,11z
      		 M106,10.7c-0.1,0-0.1,0.1-0.1,0.1c0,0.1,0.1,0.1,0.1,0.1c0.1,0,0.1-0.1,0.1-0.1C106.1,10.7,106.1,10.7,106,10.7z"/>
            </g>
            <g>
                <path fill="#E66558" d="M106,10.3c0,0.1-0.1,0.2-0.2,0.2c-0.1,0-0.2-0.1-0.2-0.2c0-0.1,0.1-0.2,0.2-0.2
      		C105.9,10.1,106,10.2,106,10.3z"/>
                <path fill="#E66558" d="M105.7,10.5c-0.1,0-0.2-0.1-0.2-0.2c0-0.1,0.1-0.2,0.2-0.2c0.1,0,0.2,0.1,0.2,0.2
      		C106,10.4,105.9,10.5,105.7,10.5z M105.7,10.1c-0.1,0-0.2,0.1-0.2,0.2c0,0.1,0.1,0.2,0.2,0.2c0.1,0,0.2-0.1,0.2-0.2
      		C105.9,10.2,105.8,10.1,105.7,10.1z"/>
            </g>
            <g>
                <path fill="#E66558" d="M105.3,10.3c0,0.1-0.1,0.2-0.2,0.2c-0.1,0-0.2-0.1-0.2-0.2c0-0.1,0.1-0.2,0.2-0.2
      		C105.2,10.1,105.3,10.2,105.3,10.3z"/>
                <path fill="#E66558" d="M105.1,10.5c-0.1,0-0.2-0.1-0.2-0.2c0-0.1,0.1-0.2,0.2-0.2c0.1,0,0.2,0.1,0.2,0.2
      		C105.3,10.4,105.2,10.5,105.1,10.5z M105.1,10.1c-0.1,0-0.2,0.1-0.2,0.2c0,0.1,0.1,0.2,0.2,0.2c0.1,0,0.2-0.1,0.2-0.2
      		C105.3,10.2,105.2,10.1,105.1,10.1z"/>
            </g>
            <g>
                <path fill="#E66558" d="M104.6,9.3c0,0.1-0.1,0.2-0.2,0.2s-0.2-0.1-0.2-0.2c0-0.1,0.1-0.2,0.2-0.2S104.6,9.2,104.6,9.3z"/>
                <path fill="#E66558" d="M104.4,9.6c-0.1,0-0.3-0.1-0.3-0.3c0-0.1,0.1-0.3,0.3-0.3c0.1,0,0.3,0.1,0.3,0.3
      		C104.7,9.5,104.6,9.6,104.4,9.6z M104.4,9.1c-0.1,0-0.2,0.1-0.2,0.2c0,0.1,0.1,0.2,0.2,0.2c0.1,0,0.2-0.1,0.2-0.2
      		C104.6,9.2,104.5,9.1,104.4,9.1z"/>
            </g>
            <g>
                <path fill="#E66558" d="M105,8.3c0,0.1-0.1,0.2-0.2,0.2s-0.2-0.1-0.2-0.2c0-0.1,0.1-0.2,0.2-0.2S105,8.2,105,8.3z"/>
                <path fill="#E66558" d="M104.7,8.6c-0.1,0-0.2-0.1-0.2-0.2c0-0.1,0.1-0.2,0.2-0.2c0.1,0,0.2,0.1,0.2,0.2
      		C105,8.5,104.9,8.6,104.7,8.6z M104.7,8.2c-0.1,0-0.2,0.1-0.2,0.2c0,0.1,0.1,0.2,0.2,0.2c0.1,0,0.2-0.1,0.2-0.2
      		C104.9,8.3,104.8,8.2,104.7,8.2z"/>
            </g>
            <g>
                <path fill="#E66558" d="M105.5,6.2c0,0.2-0.2,0.3-0.3,0.3c-0.2,0-0.3-0.2-0.3-0.3c0-0.2,0.2-0.3,0.3-0.3
      		C105.4,5.8,105.5,6,105.5,6.2z"/>
                <path fill="#E66558" d="M105.2,6.6c-0.2,0-0.4-0.2-0.4-0.4c0-0.2,0.2-0.4,0.4-0.4c0.2,0,0.4,0.2,0.4,0.4
      		C105.6,6.4,105.4,6.6,105.2,6.6z M105.2,5.9c-0.2,0-0.3,0.1-0.3,0.3c0,0.2,0.1,0.3,0.3,0.3c0.2,0,0.3-0.1,0.3-0.3
      		C105.5,6,105.4,5.9,105.2,5.9z"/>
            </g>
            <g>
                <path fill="#E66558" d="M106.3,8.6c0,0.1-0.1,0.2-0.2,0.2c-0.1,0-0.2-0.1-0.2-0.2c0-0.1,0.1-0.2,0.2-0.2
      		C106.2,8.4,106.3,8.5,106.3,8.6z"/>
                <path fill="#E66558" d="M106.1,8.8c-0.1,0-0.2-0.1-0.2-0.2c0-0.1,0.1-0.2,0.2-0.2c0.1,0,0.2,0.1,0.2,0.2
      		C106.4,8.7,106.3,8.8,106.1,8.8z M106.1,8.4c-0.1,0-0.2,0.1-0.2,0.2c0,0.1,0.1,0.2,0.2,0.2c0.1,0,0.2-0.1,0.2-0.2
      		C106.3,8.5,106.2,8.4,106.1,8.4z"/>
            </g>
        </g>
    </g>
</svg>
